# Approximate low-poly unmanned delivery vehicle generated from visual reference
mtllib unmanned_delivery_vehicle.mtl

o body_white_00
usemtl body_white
v -1.500000 -0.925000 0.275000
v -1.500000 -0.925000 2.225000
v -1.500000 0.925000 0.275000
v -1.500000 0.925000 2.225000
v 1.700000 -0.925000 0.275000
v 1.700000 -0.925000 2.225000
v 1.700000 0.925000 0.275000
v 1.700000 0.925000 2.225000
f 2 4 1
f 5 2 1
f 1 4 3
f 3 5 1
f 2 8 4
f 6 2 5
f 6 8 2
f 4 8 3
f 7 5 3
f 3 8 7
f 7 6 5
f 8 6 7

o lower_dark_01
usemtl lower_dark
v -1.575000 -0.950000 0.270000
v -1.575000 -0.950000 0.650000
v -1.575000 0.950000 0.270000
v -1.575000 0.950000 0.650000
v 1.675000 -0.950000 0.270000
v 1.675000 -0.950000 0.650000
v 1.675000 0.950000 0.270000
v 1.675000 0.950000 0.650000
f 10 12 9
f 13 10 9
f 9 12 11
f 11 13 9
f 10 16 12
f 14 10 13
f 14 16 10
f 12 16 11
f 15 13 11
f 11 16 15
f 15 14 13
f 16 14 15

o front_black_02
usemtl front_black
v -1.770000 -0.810000 0.920000
v -1.770000 -0.810000 2.040000
v -1.770000 0.810000 0.920000
v -1.770000 0.810000 2.040000
v -1.190000 -0.810000 0.920000
v -1.190000 -0.810000 2.040000
v -1.190000 0.810000 0.920000
v -1.190000 0.810000 2.040000
f 18 20 17
f 21 18 17
f 17 20 19
f 19 21 17
f 18 24 20
f 22 18 21
f 22 24 18
f 20 24 19
f 23 21 19
f 19 24 23
f 23 22 21
f 24 22 23

o front_white_cap_03
usemtl front_white_cap
v -1.580000 -0.860000 1.950000
v -1.580000 -0.860000 2.290000
v -1.580000 0.860000 1.950000
v -1.580000 0.860000 2.290000
v -1.300000 -0.860000 1.950000
v -1.300000 -0.860000 2.290000
v -1.300000 0.860000 1.950000
v -1.300000 0.860000 2.290000
f 26 28 25
f 29 26 25
f 25 28 27
f 27 29 25
f 26 32 28
f 30 26 29
f 30 32 26
f 28 32 27
f 31 29 27
f 27 32 31
f 31 30 29
f 32 30 31

o cargo_door_04
usemtl cargo_door
v -0.225000 -0.985000 0.880000
v -0.225000 -0.985000 1.960000
v -0.225000 -0.925000 0.880000
v -0.225000 -0.925000 1.960000
v 1.325000 -0.985000 0.880000
v 1.325000 -0.985000 1.960000
v 1.325000 -0.925000 0.880000
v 1.325000 -0.925000 1.960000
f 34 36 33
f 37 34 33
f 33 36 35
f 35 37 33
f 34 40 36
f 38 34 37
f 38 40 34
f 36 40 35
f 39 37 35
f 35 40 39
f 39 38 37
f 40 38 39

o roof_base_05
usemtl roof_base
v -1.100000 -0.425000 2.210000
v -1.100000 -0.425000 2.490000
v -1.100000 0.425000 2.210000
v -1.100000 0.425000 2.490000
v 0.000000 -0.425000 2.210000
v 0.000000 -0.425000 2.490000
v 0.000000 0.425000 2.210000
v 0.000000 0.425000 2.490000
f 42 44 41
f 45 42 41
f 41 44 43
f 43 45 41
f 42 48 44
f 46 42 45
f 46 48 42
f 44 48 43
f 47 45 43
f 43 48 47
f 47 46 45
f 48 46 47

o lidar_pedestal_06
usemtl lidar_pedestal
v -0.550000 0.000000 2.460000
v -0.270000 0.000000 2.460000
v -0.270000 0.000000 2.640000
v -0.550000 0.000000 2.640000
v -0.272395 0.036547 2.460000
v -0.272395 0.036547 2.640000
v -0.279541 0.072469 2.460000
v -0.279541 0.072469 2.640000
v -0.291314 0.107151 2.460000
v -0.291314 0.107151 2.640000
v -0.307513 0.140000 2.460000
v -0.307513 0.140000 2.640000
v -0.327861 0.170453 2.460000
v -0.327861 0.170453 2.640000
v -0.352010 0.197990 2.460000
v -0.352010 0.197990 2.640000
v -0.379547 0.222139 2.460000
v -0.379547 0.222139 2.640000
v -0.410000 0.242487 2.460000
v -0.410000 0.242487 2.640000
v -0.442849 0.258686 2.460000
v -0.442849 0.258686 2.640000
v -0.477531 0.270459 2.460000
v -0.477531 0.270459 2.640000
v -0.513453 0.277605 2.460000
v -0.513453 0.277605 2.640000
v -0.550000 0.280000 2.460000
v -0.550000 0.280000 2.640000
v -0.586547 0.277605 2.460000
v -0.586547 0.277605 2.640000
v -0.622469 0.270459 2.460000
v -0.622469 0.270459 2.640000
v -0.657151 0.258686 2.460000
v -0.657151 0.258686 2.640000
v -0.690000 0.242487 2.460000
v -0.690000 0.242487 2.640000
v -0.720453 0.222139 2.460000
v -0.720453 0.222139 2.640000
v -0.747990 0.197990 2.460000
v -0.747990 0.197990 2.640000
v -0.772139 0.170453 2.460000
v -0.772139 0.170453 2.640000
v -0.792487 0.140000 2.460000
v -0.792487 0.140000 2.640000
v -0.808686 0.107151 2.460000
v -0.808686 0.107151 2.640000
v -0.820459 0.072469 2.460000
v -0.820459 0.072469 2.640000
v -0.827605 0.036547 2.460000
v -0.827605 0.036547 2.640000
v -0.830000 0.000000 2.460000
v -0.830000 0.000000 2.640000
v -0.827605 -0.036547 2.460000
v -0.827605 -0.036547 2.640000
v -0.820459 -0.072469 2.460000
v -0.820459 -0.072469 2.640000
v -0.808686 -0.107151 2.460000
v -0.808686 -0.107151 2.640000
v -0.792487 -0.140000 2.460000
v -0.792487 -0.140000 2.640000
v -0.772139 -0.170453 2.460000
v -0.772139 -0.170453 2.640000
v -0.747990 -0.197990 2.460000
v -0.747990 -0.197990 2.640000
v -0.720453 -0.222139 2.460000
v -0.720453 -0.222139 2.640000
v -0.690000 -0.242487 2.460000
v -0.690000 -0.242487 2.640000
v -0.657151 -0.258686 2.460000
v -0.657151 -0.258686 2.640000
v -0.622469 -0.270459 2.460000
v -0.622469 -0.270459 2.640000
v -0.586547 -0.277605 2.460000
v -0.586547 -0.277605 2.640000
v -0.550000 -0.280000 2.460000
v -0.550000 -0.280000 2.640000
v -0.513453 -0.277605 2.460000
v -0.513453 -0.277605 2.640000
v -0.477531 -0.270459 2.460000
v -0.477531 -0.270459 2.640000
v -0.442849 -0.258686 2.460000
v -0.442849 -0.258686 2.640000
v -0.410000 -0.242487 2.460000
v -0.410000 -0.242487 2.640000
v -0.379547 -0.222139 2.460000
v -0.379547 -0.222139 2.640000
v -0.352010 -0.197990 2.460000
v -0.352010 -0.197990 2.640000
v -0.327861 -0.170453 2.460000
v -0.327861 -0.170453 2.640000
v -0.307513 -0.140000 2.460000
v -0.307513 -0.140000 2.640000
v -0.291314 -0.107151 2.460000
v -0.291314 -0.107151 2.640000
v -0.279541 -0.072469 2.460000
v -0.279541 -0.072469 2.640000
v -0.272395 -0.036547 2.460000
v -0.272395 -0.036547 2.640000
f 50 49 53
f 50 53 51
f 51 53 54
f 51 54 52
f 53 49 55
f 53 55 54
f 54 55 56
f 54 56 52
f 55 49 57
f 55 57 56
f 56 57 58
f 56 58 52
f 57 49 59
f 57 59 58
f 58 59 60
f 58 60 52
f 59 49 61
f 59 61 60
f 60 61 62
f 60 62 52
f 61 49 63
f 61 63 62
f 62 63 64
f 62 64 52
f 63 49 65
f 63 65 64
f 64 65 66
f 64 66 52
f 65 49 67
f 65 67 66
f 66 67 68
f 66 68 52
f 67 49 69
f 67 69 68
f 68 69 70
f 68 70 52
f 69 49 71
f 69 71 70
f 70 71 72
f 70 72 52
f 71 49 73
f 71 73 72
f 72 73 74
f 72 74 52
f 73 49 75
f 73 75 74
f 74 75 76
f 74 76 52
f 75 49 77
f 75 77 76
f 76 77 78
f 76 78 52
f 77 49 79
f 77 79 78
f 78 79 80
f 78 80 52
f 79 49 81
f 79 81 80
f 80 81 82
f 80 82 52
f 81 49 83
f 81 83 82
f 82 83 84
f 82 84 52
f 83 49 85
f 83 85 84
f 84 85 86
f 84 86 52
f 85 49 87
f 85 87 86
f 86 87 88
f 86 88 52
f 87 49 89
f 87 89 88
f 88 89 90
f 88 90 52
f 89 49 91
f 89 91 90
f 90 91 92
f 90 92 52
f 91 49 93
f 91 93 92
f 92 93 94
f 92 94 52
f 93 49 95
f 93 95 94
f 94 95 96
f 94 96 52
f 95 49 97
f 95 97 96
f 96 97 98
f 96 98 52
f 97 49 99
f 97 99 98
f 98 99 100
f 98 100 52
f 99 49 101
f 99 101 100
f 100 101 102
f 100 102 52
f 101 49 103
f 101 103 102
f 102 103 104
f 102 104 52
f 103 49 105
f 103 105 104
f 104 105 106
f 104 106 52
f 105 49 107
f 105 107 106
f 106 107 108
f 106 108 52
f 107 49 109
f 107 109 108
f 108 109 110
f 108 110 52
f 109 49 111
f 109 111 110
f 110 111 112
f 110 112 52
f 111 49 113
f 111 113 112
f 112 113 114
f 112 114 52
f 113 49 115
f 113 115 114
f 114 115 116
f 114 116 52
f 115 49 117
f 115 117 116
f 116 117 118
f 116 118 52
f 117 49 119
f 117 119 118
f 118 119 120
f 118 120 52
f 119 49 121
f 119 121 120
f 120 121 122
f 120 122 52
f 121 49 123
f 121 123 122
f 122 123 124
f 122 124 52
f 123 49 125
f 123 125 124
f 124 125 126
f 124 126 52
f 125 49 127
f 125 127 126
f 126 127 128
f 126 128 52
f 127 49 129
f 127 129 128
f 128 129 130
f 128 130 52
f 129 49 131
f 129 131 130
f 130 131 132
f 130 132 52
f 131 49 133
f 131 133 132
f 132 133 134
f 132 134 52
f 133 49 135
f 133 135 134
f 134 135 136
f 134 136 52
f 135 49 137
f 135 137 136
f 136 137 138
f 136 138 52
f 137 49 139
f 137 139 138
f 138 139 140
f 138 140 52
f 139 49 141
f 139 141 140
f 140 141 142
f 140 142 52
f 141 49 143
f 141 143 142
f 142 143 144
f 142 144 52
f 143 49 145
f 143 145 144
f 144 145 146
f 144 146 52
f 145 49 50
f 145 50 146
f 146 50 51
f 146 51 52

o lidar_blue_07
usemtl lidar_blue
v -0.550000 0.000000 2.620000
v -0.310000 0.000000 2.620000
v -0.310000 0.000000 2.960000
v -0.550000 0.000000 2.960000
v -0.312053 0.031326 2.620000
v -0.312053 0.031326 2.960000
v -0.318178 0.062117 2.620000
v -0.318178 0.062117 2.960000
v -0.328269 0.091844 2.620000
v -0.328269 0.091844 2.960000
v -0.342154 0.120000 2.620000
v -0.342154 0.120000 2.960000
v -0.359595 0.146103 2.620000
v -0.359595 0.146103 2.960000
v -0.380294 0.169706 2.620000
v -0.380294 0.169706 2.960000
v -0.403897 0.190405 2.620000
v -0.403897 0.190405 2.960000
v -0.430000 0.207846 2.620000
v -0.430000 0.207846 2.960000
v -0.458156 0.221731 2.620000
v -0.458156 0.221731 2.960000
v -0.487883 0.231822 2.620000
v -0.487883 0.231822 2.960000
v -0.518674 0.237947 2.620000
v -0.518674 0.237947 2.960000
v -0.550000 0.240000 2.620000
v -0.550000 0.240000 2.960000
v -0.581326 0.237947 2.620000
v -0.581326 0.237947 2.960000
v -0.612117 0.231822 2.620000
v -0.612117 0.231822 2.960000
v -0.641844 0.221731 2.620000
v -0.641844 0.221731 2.960000
v -0.670000 0.207846 2.620000
v -0.670000 0.207846 2.960000
v -0.696103 0.190405 2.620000
v -0.696103 0.190405 2.960000
v -0.719706 0.169706 2.620000
v -0.719706 0.169706 2.960000
v -0.740405 0.146103 2.620000
v -0.740405 0.146103 2.960000
v -0.757846 0.120000 2.620000
v -0.757846 0.120000 2.960000
v -0.771731 0.091844 2.620000
v -0.771731 0.091844 2.960000
v -0.781822 0.062117 2.620000
v -0.781822 0.062117 2.960000
v -0.787947 0.031326 2.620000
v -0.787947 0.031326 2.960000
v -0.790000 0.000000 2.620000
v -0.790000 0.000000 2.960000
v -0.787947 -0.031326 2.620000
v -0.787947 -0.031326 2.960000
v -0.781822 -0.062117 2.620000
v -0.781822 -0.062117 2.960000
v -0.771731 -0.091844 2.620000
v -0.771731 -0.091844 2.960000
v -0.757846 -0.120000 2.620000
v -0.757846 -0.120000 2.960000
v -0.740405 -0.146103 2.620000
v -0.740405 -0.146103 2.960000
v -0.719706 -0.169706 2.620000
v -0.719706 -0.169706 2.960000
v -0.696103 -0.190405 2.620000
v -0.696103 -0.190405 2.960000
v -0.670000 -0.207846 2.620000
v -0.670000 -0.207846 2.960000
v -0.641844 -0.221731 2.620000
v -0.641844 -0.221731 2.960000
v -0.612117 -0.231822 2.620000
v -0.612117 -0.231822 2.960000
v -0.581326 -0.237947 2.620000
v -0.581326 -0.237947 2.960000
v -0.550000 -0.240000 2.620000
v -0.550000 -0.240000 2.960000
v -0.518674 -0.237947 2.620000
v -0.518674 -0.237947 2.960000
v -0.487883 -0.231822 2.620000
v -0.487883 -0.231822 2.960000
v -0.458156 -0.221731 2.620000
v -0.458156 -0.221731 2.960000
v -0.430000 -0.207846 2.620000
v -0.430000 -0.207846 2.960000
v -0.403897 -0.190405 2.620000
v -0.403897 -0.190405 2.960000
v -0.380294 -0.169706 2.620000
v -0.380294 -0.169706 2.960000
v -0.359595 -0.146103 2.620000
v -0.359595 -0.146103 2.960000
v -0.342154 -0.120000 2.620000
v -0.342154 -0.120000 2.960000
v -0.328269 -0.091844 2.620000
v -0.328269 -0.091844 2.960000
v -0.318178 -0.062117 2.620000
v -0.318178 -0.062117 2.960000
v -0.312053 -0.031326 2.620000
v -0.312053 -0.031326 2.960000
f 148 147 151
f 148 151 149
f 149 151 152
f 149 152 150
f 151 147 153
f 151 153 152
f 152 153 154
f 152 154 150
f 153 147 155
f 153 155 154
f 154 155 156
f 154 156 150
f 155 147 157
f 155 157 156
f 156 157 158
f 156 158 150
f 157 147 159
f 157 159 158
f 158 159 160
f 158 160 150
f 159 147 161
f 159 161 160
f 160 161 162
f 160 162 150
f 161 147 163
f 161 163 162
f 162 163 164
f 162 164 150
f 163 147 165
f 163 165 164
f 164 165 166
f 164 166 150
f 165 147 167
f 165 167 166
f 166 167 168
f 166 168 150
f 167 147 169
f 167 169 168
f 168 169 170
f 168 170 150
f 169 147 171
f 169 171 170
f 170 171 172
f 170 172 150
f 171 147 173
f 171 173 172
f 172 173 174
f 172 174 150
f 173 147 175
f 173 175 174
f 174 175 176
f 174 176 150
f 175 147 177
f 175 177 176
f 176 177 178
f 176 178 150
f 177 147 179
f 177 179 178
f 178 179 180
f 178 180 150
f 179 147 181
f 179 181 180
f 180 181 182
f 180 182 150
f 181 147 183
f 181 183 182
f 182 183 184
f 182 184 150
f 183 147 185
f 183 185 184
f 184 185 186
f 184 186 150
f 185 147 187
f 185 187 186
f 186 187 188
f 186 188 150
f 187 147 189
f 187 189 188
f 188 189 190
f 188 190 150
f 189 147 191
f 189 191 190
f 190 191 192
f 190 192 150
f 191 147 193
f 191 193 192
f 192 193 194
f 192 194 150
f 193 147 195
f 193 195 194
f 194 195 196
f 194 196 150
f 195 147 197
f 195 197 196
f 196 197 198
f 196 198 150
f 197 147 199
f 197 199 198
f 198 199 200
f 198 200 150
f 199 147 201
f 199 201 200
f 200 201 202
f 200 202 150
f 201 147 203
f 201 203 202
f 202 203 204
f 202 204 150
f 203 147 205
f 203 205 204
f 204 205 206
f 204 206 150
f 205 147 207
f 205 207 206
f 206 207 208
f 206 208 150
f 207 147 209
f 207 209 208
f 208 209 210
f 208 210 150
f 209 147 211
f 209 211 210
f 210 211 212
f 210 212 150
f 211 147 213
f 211 213 212
f 212 213 214
f 212 214 150
f 213 147 215
f 213 215 214
f 214 215 216
f 214 216 150
f 215 147 217
f 215 217 216
f 216 217 218
f 216 218 150
f 217 147 219
f 217 219 218
f 218 219 220
f 218 220 150
f 219 147 221
f 219 221 220
f 220 221 222
f 220 222 150
f 221 147 223
f 221 223 222
f 222 223 224
f 222 224 150
f 223 147 225
f 223 225 224
f 224 225 226
f 224 226 150
f 225 147 227
f 225 227 226
f 226 227 228
f 226 228 150
f 227 147 229
f 227 229 228
f 228 229 230
f 228 230 150
f 229 147 231
f 229 231 230
f 230 231 232
f 230 232 150
f 231 147 233
f 231 233 232
f 232 233 234
f 232 234 150
f 233 147 235
f 233 235 234
f 234 235 236
f 234 236 150
f 235 147 237
f 235 237 236
f 236 237 238
f 236 238 150
f 237 147 239
f 237 239 238
f 238 239 240
f 238 240 150
f 239 147 241
f 239 241 240
f 240 241 242
f 240 242 150
f 241 147 243
f 241 243 242
f 242 243 244
f 242 244 150
f 243 147 148
f 243 148 244
f 244 148 149
f 244 149 150

o lidar_cap_08
usemtl lidar_cap
v -0.550000 0.000000 2.960000
v -0.280000 0.000000 2.960000
v -0.280000 0.000000 3.080000
v -0.550000 0.000000 3.080000
v -0.282310 0.035242 2.960000
v -0.282310 0.035242 3.080000
v -0.289200 0.069881 2.960000
v -0.289200 0.069881 3.080000
v -0.300553 0.103325 2.960000
v -0.300553 0.103325 3.080000
v -0.316173 0.135000 2.960000
v -0.316173 0.135000 3.080000
v -0.335795 0.164366 2.960000
v -0.335795 0.164366 3.080000
v -0.359081 0.190919 2.960000
v -0.359081 0.190919 3.080000
v -0.385634 0.214205 2.960000
v -0.385634 0.214205 3.080000
v -0.415000 0.233827 2.960000
v -0.415000 0.233827 3.080000
v -0.446675 0.249447 2.960000
v -0.446675 0.249447 3.080000
v -0.480119 0.260800 2.960000
v -0.480119 0.260800 3.080000
v -0.514758 0.267690 2.960000
v -0.514758 0.267690 3.080000
v -0.550000 0.270000 2.960000
v -0.550000 0.270000 3.080000
v -0.585242 0.267690 2.960000
v -0.585242 0.267690 3.080000
v -0.619881 0.260800 2.960000
v -0.619881 0.260800 3.080000
v -0.653325 0.249447 2.960000
v -0.653325 0.249447 3.080000
v -0.685000 0.233827 2.960000
v -0.685000 0.233827 3.080000
v -0.714366 0.214205 2.960000
v -0.714366 0.214205 3.080000
v -0.740919 0.190919 2.960000
v -0.740919 0.190919 3.080000
v -0.764205 0.164366 2.960000
v -0.764205 0.164366 3.080000
v -0.783827 0.135000 2.960000
v -0.783827 0.135000 3.080000
v -0.799447 0.103325 2.960000
v -0.799447 0.103325 3.080000
v -0.810800 0.069881 2.960000
v -0.810800 0.069881 3.080000
v -0.817690 0.035242 2.960000
v -0.817690 0.035242 3.080000
v -0.820000 0.000000 2.960000
v -0.820000 0.000000 3.080000
v -0.817690 -0.035242 2.960000
v -0.817690 -0.035242 3.080000
v -0.810800 -0.069881 2.960000
v -0.810800 -0.069881 3.080000
v -0.799447 -0.103325 2.960000
v -0.799447 -0.103325 3.080000
v -0.783827 -0.135000 2.960000
v -0.783827 -0.135000 3.080000
v -0.764205 -0.164366 2.960000
v -0.764205 -0.164366 3.080000
v -0.740919 -0.190919 2.960000
v -0.740919 -0.190919 3.080000
v -0.714366 -0.214205 2.960000
v -0.714366 -0.214205 3.080000
v -0.685000 -0.233827 2.960000
v -0.685000 -0.233827 3.080000
v -0.653325 -0.249447 2.960000
v -0.653325 -0.249447 3.080000
v -0.619881 -0.260800 2.960000
v -0.619881 -0.260800 3.080000
v -0.585242 -0.267690 2.960000
v -0.585242 -0.267690 3.080000
v -0.550000 -0.270000 2.960000
v -0.550000 -0.270000 3.080000
v -0.514758 -0.267690 2.960000
v -0.514758 -0.267690 3.080000
v -0.480119 -0.260800 2.960000
v -0.480119 -0.260800 3.080000
v -0.446675 -0.249447 2.960000
v -0.446675 -0.249447 3.080000
v -0.415000 -0.233827 2.960000
v -0.415000 -0.233827 3.080000
v -0.385634 -0.214205 2.960000
v -0.385634 -0.214205 3.080000
v -0.359081 -0.190919 2.960000
v -0.359081 -0.190919 3.080000
v -0.335795 -0.164366 2.960000
v -0.335795 -0.164366 3.080000
v -0.316173 -0.135000 2.960000
v -0.316173 -0.135000 3.080000
v -0.300553 -0.103325 2.960000
v -0.300553 -0.103325 3.080000
v -0.289200 -0.069881 2.960000
v -0.289200 -0.069881 3.080000
v -0.282310 -0.035242 2.960000
v -0.282310 -0.035242 3.080000
f 246 245 249
f 246 249 247
f 247 249 250
f 247 250 248
f 249 245 251
f 249 251 250
f 250 251 252
f 250 252 248
f 251 245 253
f 251 253 252
f 252 253 254
f 252 254 248
f 253 245 255
f 253 255 254
f 254 255 256
f 254 256 248
f 255 245 257
f 255 257 256
f 256 257 258
f 256 258 248
f 257 245 259
f 257 259 258
f 258 259 260
f 258 260 248
f 259 245 261
f 259 261 260
f 260 261 262
f 260 262 248
f 261 245 263
f 261 263 262
f 262 263 264
f 262 264 248
f 263 245 265
f 263 265 264
f 264 265 266
f 264 266 248
f 265 245 267
f 265 267 266
f 266 267 268
f 266 268 248
f 267 245 269
f 267 269 268
f 268 269 270
f 268 270 248
f 269 245 271
f 269 271 270
f 270 271 272
f 270 272 248
f 271 245 273
f 271 273 272
f 272 273 274
f 272 274 248
f 273 245 275
f 273 275 274
f 274 275 276
f 274 276 248
f 275 245 277
f 275 277 276
f 276 277 278
f 276 278 248
f 277 245 279
f 277 279 278
f 278 279 280
f 278 280 248
f 279 245 281
f 279 281 280
f 280 281 282
f 280 282 248
f 281 245 283
f 281 283 282
f 282 283 284
f 282 284 248
f 283 245 285
f 283 285 284
f 284 285 286
f 284 286 248
f 285 245 287
f 285 287 286
f 286 287 288
f 286 288 248
f 287 245 289
f 287 289 288
f 288 289 290
f 288 290 248
f 289 245 291
f 289 291 290
f 290 291 292
f 290 292 248
f 291 245 293
f 291 293 292
f 292 293 294
f 292 294 248
f 293 245 295
f 293 295 294
f 294 295 296
f 294 296 248
f 295 245 297
f 295 297 296
f 296 297 298
f 296 298 248
f 297 245 299
f 297 299 298
f 298 299 300
f 298 300 248
f 299 245 301
f 299 301 300
f 300 301 302
f 300 302 248
f 301 245 303
f 301 303 302
f 302 303 304
f 302 304 248
f 303 245 305
f 303 305 304
f 304 305 306
f 304 306 248
f 305 245 307
f 305 307 306
f 306 307 308
f 306 308 248
f 307 245 309
f 307 309 308
f 308 309 310
f 308 310 248
f 309 245 311
f 309 311 310
f 310 311 312
f 310 312 248
f 311 245 313
f 311 313 312
f 312 313 314
f 312 314 248
f 313 245 315
f 313 315 314
f 314 315 316
f 314 316 248
f 315 245 317
f 315 317 316
f 316 317 318
f 316 318 248
f 317 245 319
f 317 319 318
f 318 319 320
f 318 320 248
f 319 245 321
f 319 321 320
f 320 321 322
f 320 322 248
f 321 245 323
f 321 323 322
f 322 323 324
f 322 324 248
f 323 245 325
f 323 325 324
f 324 325 326
f 324 326 248
f 325 245 327
f 325 327 326
f 326 327 328
f 326 328 248
f 327 245 329
f 327 329 328
f 328 329 330
f 328 330 248
f 329 245 331
f 329 331 330
f 330 331 332
f 330 332 248
f 331 245 333
f 331 333 332
f 332 333 334
f 332 334 248
f 333 245 335
f 333 335 334
f 334 335 336
f 334 336 248
f 335 245 337
f 335 337 336
f 336 337 338
f 336 338 248
f 337 245 339
f 337 339 338
f 338 339 340
f 338 340 248
f 339 245 341
f 339 341 340
f 340 341 342
f 340 342 248
f 341 245 246
f 341 246 342
f 342 246 247
f 342 247 248

o camera_pod_09
usemtl camera_pod
v -1.355000 -0.350000 2.340000
v -1.355000 -0.350000 2.540000
v -1.355000 0.350000 2.340000
v -1.355000 0.350000 2.540000
v -0.805000 -0.350000 2.340000
v -0.805000 -0.350000 2.540000
v -0.805000 0.350000 2.340000
v -0.805000 0.350000 2.540000
f 344 346 343
f 347 344 343
f 343 346 345
f 345 347 343
f 344 350 346
f 348 344 347
f 348 350 344
f 346 350 345
f 349 347 345
f 345 350 349
f 349 348 347
f 350 348 349

o sensor_black_10
usemtl sensor_black
v -1.410000 -0.180000 2.450000
v -1.410000 -0.180000 2.395000
v -1.330000 -0.180000 2.395000
v -1.330000 -0.180000 2.450000
v -1.410000 -0.165765 2.396874
v -1.330000 -0.165765 2.396874
v -1.410000 -0.152500 2.402369
v -1.330000 -0.152500 2.402369
v -1.410000 -0.141109 2.411109
v -1.330000 -0.141109 2.411109
v -1.410000 -0.132369 2.422500
v -1.330000 -0.132369 2.422500
v -1.410000 -0.126874 2.435765
v -1.330000 -0.126874 2.435765
v -1.410000 -0.125000 2.450000
v -1.330000 -0.125000 2.450000
v -1.410000 -0.126874 2.464235
v -1.330000 -0.126874 2.464235
v -1.410000 -0.132369 2.477500
v -1.330000 -0.132369 2.477500
v -1.410000 -0.141109 2.488891
v -1.330000 -0.141109 2.488891
v -1.410000 -0.152500 2.497631
v -1.330000 -0.152500 2.497631
v -1.410000 -0.165765 2.503126
v -1.330000 -0.165765 2.503126
v -1.410000 -0.180000 2.505000
v -1.330000 -0.180000 2.505000
v -1.410000 -0.194235 2.503126
v -1.330000 -0.194235 2.503126
v -1.410000 -0.207500 2.497631
v -1.330000 -0.207500 2.497631
v -1.410000 -0.218891 2.488891
v -1.330000 -0.218891 2.488891
v -1.410000 -0.227631 2.477500
v -1.330000 -0.227631 2.477500
v -1.410000 -0.233126 2.464235
v -1.330000 -0.233126 2.464235
v -1.410000 -0.235000 2.450000
v -1.330000 -0.235000 2.450000
v -1.410000 -0.233126 2.435765
v -1.330000 -0.233126 2.435765
v -1.410000 -0.227631 2.422500
v -1.330000 -0.227631 2.422500
v -1.410000 -0.218891 2.411109
v -1.330000 -0.218891 2.411109
v -1.410000 -0.207500 2.402369
v -1.330000 -0.207500 2.402369
v -1.410000 -0.194235 2.396874
v -1.330000 -0.194235 2.396874
f 352 351 355
f 352 355 353
f 353 355 356
f 353 356 354
f 355 351 357
f 355 357 356
f 356 357 358
f 356 358 354
f 357 351 359
f 357 359 358
f 358 359 360
f 358 360 354
f 359 351 361
f 359 361 360
f 360 361 362
f 360 362 354
f 361 351 363
f 361 363 362
f 362 363 364
f 362 364 354
f 363 351 365
f 363 365 364
f 364 365 366
f 364 366 354
f 365 351 367
f 365 367 366
f 366 367 368
f 366 368 354
f 367 351 369
f 367 369 368
f 368 369 370
f 368 370 354
f 369 351 371
f 369 371 370
f 370 371 372
f 370 372 354
f 371 351 373
f 371 373 372
f 372 373 374
f 372 374 354
f 373 351 375
f 373 375 374
f 374 375 376
f 374 376 354
f 375 351 377
f 375 377 376
f 376 377 378
f 376 378 354
f 377 351 379
f 377 379 378
f 378 379 380
f 378 380 354
f 379 351 381
f 379 381 380
f 380 381 382
f 380 382 354
f 381 351 383
f 381 383 382
f 382 383 384
f 382 384 354
f 383 351 385
f 383 385 384
f 384 385 386
f 384 386 354
f 385 351 387
f 385 387 386
f 386 387 388
f 386 388 354
f 387 351 389
f 387 389 388
f 388 389 390
f 388 390 354
f 389 351 391
f 389 391 390
f 390 391 392
f 390 392 354
f 391 351 393
f 391 393 392
f 392 393 394
f 392 394 354
f 393 351 395
f 393 395 394
f 394 395 396
f 394 396 354
f 395 351 397
f 395 397 396
f 396 397 398
f 396 398 354
f 397 351 399
f 397 399 398
f 398 399 400
f 398 400 354
f 399 351 352
f 399 352 400
f 400 352 353
f 400 353 354

o sensor_black_11
usemtl sensor_black
v -1.410000 0.000000 2.450000
v -1.410000 0.000000 2.395000
v -1.330000 0.000000 2.395000
v -1.330000 0.000000 2.450000
v -1.410000 0.014235 2.396874
v -1.330000 0.014235 2.396874
v -1.410000 0.027500 2.402369
v -1.330000 0.027500 2.402369
v -1.410000 0.038891 2.411109
v -1.330000 0.038891 2.411109
v -1.410000 0.047631 2.422500
v -1.330000 0.047631 2.422500
v -1.410000 0.053126 2.435765
v -1.330000 0.053126 2.435765
v -1.410000 0.055000 2.450000
v -1.330000 0.055000 2.450000
v -1.410000 0.053126 2.464235
v -1.330000 0.053126 2.464235
v -1.410000 0.047631 2.477500
v -1.330000 0.047631 2.477500
v -1.410000 0.038891 2.488891
v -1.330000 0.038891 2.488891
v -1.410000 0.027500 2.497631
v -1.330000 0.027500 2.497631
v -1.410000 0.014235 2.503126
v -1.330000 0.014235 2.503126
v -1.410000 0.000000 2.505000
v -1.330000 0.000000 2.505000
v -1.410000 -0.014235 2.503126
v -1.330000 -0.014235 2.503126
v -1.410000 -0.027500 2.497631
v -1.330000 -0.027500 2.497631
v -1.410000 -0.038891 2.488891
v -1.330000 -0.038891 2.488891
v -1.410000 -0.047631 2.477500
v -1.330000 -0.047631 2.477500
v -1.410000 -0.053126 2.464235
v -1.330000 -0.053126 2.464235
v -1.410000 -0.055000 2.450000
v -1.330000 -0.055000 2.450000
v -1.410000 -0.053126 2.435765
v -1.330000 -0.053126 2.435765
v -1.410000 -0.047631 2.422500
v -1.330000 -0.047631 2.422500
v -1.410000 -0.038891 2.411109
v -1.330000 -0.038891 2.411109
v -1.410000 -0.027500 2.402369
v -1.330000 -0.027500 2.402369
v -1.410000 -0.014235 2.396874
v -1.330000 -0.014235 2.396874
f 402 401 405
f 402 405 403
f 403 405 406
f 403 406 404
f 405 401 407
f 405 407 406
f 406 407 408
f 406 408 404
f 407 401 409
f 407 409 408
f 408 409 410
f 408 410 404
f 409 401 411
f 409 411 410
f 410 411 412
f 410 412 404
f 411 401 413
f 411 413 412
f 412 413 414
f 412 414 404
f 413 401 415
f 413 415 414
f 414 415 416
f 414 416 404
f 415 401 417
f 415 417 416
f 416 417 418
f 416 418 404
f 417 401 419
f 417 419 418
f 418 419 420
f 418 420 404
f 419 401 421
f 419 421 420
f 420 421 422
f 420 422 404
f 421 401 423
f 421 423 422
f 422 423 424
f 422 424 404
f 423 401 425
f 423 425 424
f 424 425 426
f 424 426 404
f 425 401 427
f 425 427 426
f 426 427 428
f 426 428 404
f 427 401 429
f 427 429 428
f 428 429 430
f 428 430 404
f 429 401 431
f 429 431 430
f 430 431 432
f 430 432 404
f 431 401 433
f 431 433 432
f 432 433 434
f 432 434 404
f 433 401 435
f 433 435 434
f 434 435 436
f 434 436 404
f 435 401 437
f 435 437 436
f 436 437 438
f 436 438 404
f 437 401 439
f 437 439 438
f 438 439 440
f 438 440 404
f 439 401 441
f 439 441 440
f 440 441 442
f 440 442 404
f 441 401 443
f 441 443 442
f 442 443 444
f 442 444 404
f 443 401 445
f 443 445 444
f 444 445 446
f 444 446 404
f 445 401 447
f 445 447 446
f 446 447 448
f 446 448 404
f 447 401 449
f 447 449 448
f 448 449 450
f 448 450 404
f 449 401 402
f 449 402 450
f 450 402 403
f 450 403 404

o sensor_black_12
usemtl sensor_black
v -1.410000 0.180000 2.450000
v -1.410000 0.180000 2.395000
v -1.330000 0.180000 2.395000
v -1.330000 0.180000 2.450000
v -1.410000 0.194235 2.396874
v -1.330000 0.194235 2.396874
v -1.410000 0.207500 2.402369
v -1.330000 0.207500 2.402369
v -1.410000 0.218891 2.411109
v -1.330000 0.218891 2.411109
v -1.410000 0.227631 2.422500
v -1.330000 0.227631 2.422500
v -1.410000 0.233126 2.435765
v -1.330000 0.233126 2.435765
v -1.410000 0.235000 2.450000
v -1.330000 0.235000 2.450000
v -1.410000 0.233126 2.464235
v -1.330000 0.233126 2.464235
v -1.410000 0.227631 2.477500
v -1.330000 0.227631 2.477500
v -1.410000 0.218891 2.488891
v -1.330000 0.218891 2.488891
v -1.410000 0.207500 2.497631
v -1.330000 0.207500 2.497631
v -1.410000 0.194235 2.503126
v -1.330000 0.194235 2.503126
v -1.410000 0.180000 2.505000
v -1.330000 0.180000 2.505000
v -1.410000 0.165765 2.503126
v -1.330000 0.165765 2.503126
v -1.410000 0.152500 2.497631
v -1.330000 0.152500 2.497631
v -1.410000 0.141109 2.488891
v -1.330000 0.141109 2.488891
v -1.410000 0.132369 2.477500
v -1.330000 0.132369 2.477500
v -1.410000 0.126874 2.464235
v -1.330000 0.126874 2.464235
v -1.410000 0.125000 2.450000
v -1.330000 0.125000 2.450000
v -1.410000 0.126874 2.435765
v -1.330000 0.126874 2.435765
v -1.410000 0.132369 2.422500
v -1.330000 0.132369 2.422500
v -1.410000 0.141109 2.411109
v -1.330000 0.141109 2.411109
v -1.410000 0.152500 2.402369
v -1.330000 0.152500 2.402369
v -1.410000 0.165765 2.396874
v -1.330000 0.165765 2.396874
f 452 451 455
f 452 455 453
f 453 455 456
f 453 456 454
f 455 451 457
f 455 457 456
f 456 457 458
f 456 458 454
f 457 451 459
f 457 459 458
f 458 459 460
f 458 460 454
f 459 451 461
f 459 461 460
f 460 461 462
f 460 462 454
f 461 451 463
f 461 463 462
f 462 463 464
f 462 464 454
f 463 451 465
f 463 465 464
f 464 465 466
f 464 466 454
f 465 451 467
f 465 467 466
f 466 467 468
f 466 468 454
f 467 451 469
f 467 469 468
f 468 469 470
f 468 470 454
f 469 451 471
f 469 471 470
f 470 471 472
f 470 472 454
f 471 451 473
f 471 473 472
f 472 473 474
f 472 474 454
f 473 451 475
f 473 475 474
f 474 475 476
f 474 476 454
f 475 451 477
f 475 477 476
f 476 477 478
f 476 478 454
f 477 451 479
f 477 479 478
f 478 479 480
f 478 480 454
f 479 451 481
f 479 481 480
f 480 481 482
f 480 482 454
f 481 451 483
f 481 483 482
f 482 483 484
f 482 484 454
f 483 451 485
f 483 485 484
f 484 485 486
f 484 486 454
f 485 451 487
f 485 487 486
f 486 487 488
f 486 488 454
f 487 451 489
f 487 489 488
f 488 489 490
f 488 490 454
f 489 451 491
f 489 491 490
f 490 491 492
f 490 492 454
f 491 451 493
f 491 493 492
f 492 493 494
f 492 494 454
f 493 451 495
f 493 495 494
f 494 495 496
f 494 496 454
f 495 451 497
f 495 497 496
f 496 497 498
f 496 498 454
f 497 451 499
f 497 499 498
f 498 499 500
f 498 500 454
f 499 451 452
f 499 452 500
f 500 452 453
f 500 453 454

o antenna_base_13
usemtl antenna_base
v 1.100000 0.620000 2.190000
v 1.155000 0.620000 2.190000
v 1.155000 0.620000 2.370000
v 1.100000 0.620000 2.370000
v 1.153126 0.634235 2.190000
v 1.153126 0.634235 2.370000
v 1.147631 0.647500 2.190000
v 1.147631 0.647500 2.370000
v 1.138891 0.658891 2.190000
v 1.138891 0.658891 2.370000
v 1.127500 0.667631 2.190000
v 1.127500 0.667631 2.370000
v 1.114235 0.673126 2.190000
v 1.114235 0.673126 2.370000
v 1.100000 0.675000 2.190000
v 1.100000 0.675000 2.370000
v 1.085765 0.673126 2.190000
v 1.085765 0.673126 2.370000
v 1.072500 0.667631 2.190000
v 1.072500 0.667631 2.370000
v 1.061109 0.658891 2.190000
v 1.061109 0.658891 2.370000
v 1.052369 0.647500 2.190000
v 1.052369 0.647500 2.370000
v 1.046874 0.634235 2.190000
v 1.046874 0.634235 2.370000
v 1.045000 0.620000 2.190000
v 1.045000 0.620000 2.370000
v 1.046874 0.605765 2.190000
v 1.046874 0.605765 2.370000
v 1.052369 0.592500 2.190000
v 1.052369 0.592500 2.370000
v 1.061109 0.581109 2.190000
v 1.061109 0.581109 2.370000
v 1.072500 0.572369 2.190000
v 1.072500 0.572369 2.370000
v 1.085765 0.566874 2.190000
v 1.085765 0.566874 2.370000
v 1.100000 0.565000 2.190000
v 1.100000 0.565000 2.370000
v 1.114235 0.566874 2.190000
v 1.114235 0.566874 2.370000
v 1.127500 0.572369 2.190000
v 1.127500 0.572369 2.370000
v 1.138891 0.581109 2.190000
v 1.138891 0.581109 2.370000
v 1.147631 0.592500 2.190000
v 1.147631 0.592500 2.370000
v 1.153126 0.605765 2.190000
v 1.153126 0.605765 2.370000
f 502 501 505
f 502 505 503
f 503 505 506
f 503 506 504
f 505 501 507
f 505 507 506
f 506 507 508
f 506 508 504
f 507 501 509
f 507 509 508
f 508 509 510
f 508 510 504
f 509 501 511
f 509 511 510
f 510 511 512
f 510 512 504
f 511 501 513
f 511 513 512
f 512 513 514
f 512 514 504
f 513 501 515
f 513 515 514
f 514 515 516
f 514 516 504
f 515 501 517
f 515 517 516
f 516 517 518
f 516 518 504
f 517 501 519
f 517 519 518
f 518 519 520
f 518 520 504
f 519 501 521
f 519 521 520
f 520 521 522
f 520 522 504
f 521 501 523
f 521 523 522
f 522 523 524
f 522 524 504
f 523 501 525
f 523 525 524
f 524 525 526
f 524 526 504
f 525 501 527
f 525 527 526
f 526 527 528
f 526 528 504
f 527 501 529
f 527 529 528
f 528 529 530
f 528 530 504
f 529 501 531
f 529 531 530
f 530 531 532
f 530 532 504
f 531 501 533
f 531 533 532
f 532 533 534
f 532 534 504
f 533 501 535
f 533 535 534
f 534 535 536
f 534 536 504
f 535 501 537
f 535 537 536
f 536 537 538
f 536 538 504
f 537 501 539
f 537 539 538
f 538 539 540
f 538 540 504
f 539 501 541
f 539 541 540
f 540 541 542
f 540 542 504
f 541 501 543
f 541 543 542
f 542 543 544
f 542 544 504
f 543 501 545
f 543 545 544
f 544 545 546
f 544 546 504
f 545 501 547
f 545 547 546
f 546 547 548
f 546 548 504
f 547 501 549
f 547 549 548
f 548 549 550
f 548 550 504
f 549 501 502
f 549 502 550
f 550 502 503
f 550 503 504

o antenna_14
usemtl antenna
v 1.100000 0.620000 2.345000
v 1.125000 0.620000 2.345000
v 1.125000 0.620000 3.295000
v 1.100000 0.620000 3.295000
v 1.123492 0.628551 2.345000
v 1.123492 0.628551 3.295000
v 1.119151 0.636070 2.345000
v 1.119151 0.636070 3.295000
v 1.112500 0.641651 2.345000
v 1.112500 0.641651 3.295000
v 1.104341 0.644620 2.345000
v 1.104341 0.644620 3.295000
v 1.095659 0.644620 2.345000
v 1.095659 0.644620 3.295000
v 1.087500 0.641651 2.345000
v 1.087500 0.641651 3.295000
v 1.080849 0.636070 2.345000
v 1.080849 0.636070 3.295000
v 1.076508 0.628551 2.345000
v 1.076508 0.628551 3.295000
v 1.075000 0.620000 2.345000
v 1.075000 0.620000 3.295000
v 1.076508 0.611449 2.345000
v 1.076508 0.611449 3.295000
v 1.080849 0.603930 2.345000
v 1.080849 0.603930 3.295000
v 1.087500 0.598349 2.345000
v 1.087500 0.598349 3.295000
v 1.095659 0.595380 2.345000
v 1.095659 0.595380 3.295000
v 1.104341 0.595380 2.345000
v 1.104341 0.595380 3.295000
v 1.112500 0.598349 2.345000
v 1.112500 0.598349 3.295000
v 1.119151 0.603930 2.345000
v 1.119151 0.603930 3.295000
v 1.123492 0.611449 2.345000
v 1.123492 0.611449 3.295000
f 552 551 555
f 552 555 553
f 553 555 556
f 553 556 554
f 555 551 557
f 555 557 556
f 556 557 558
f 556 558 554
f 557 551 559
f 557 559 558
f 558 559 560
f 558 560 554
f 559 551 561
f 559 561 560
f 560 561 562
f 560 562 554
f 561 551 563
f 561 563 562
f 562 563 564
f 562 564 554
f 563 551 565
f 563 565 564
f 564 565 566
f 564 566 554
f 565 551 567
f 565 567 566
f 566 567 568
f 566 568 554
f 567 551 569
f 567 569 568
f 568 569 570
f 568 570 554
f 569 551 571
f 569 571 570
f 570 571 572
f 570 572 554
f 571 551 573
f 571 573 572
f 572 573 574
f 572 574 554
f 573 551 575
f 573 575 574
f 574 575 576
f 574 576 554
f 575 551 577
f 575 577 576
f 576 577 578
f 576 578 554
f 577 551 579
f 577 579 578
f 578 579 580
f 578 580 554
f 579 551 581
f 579 581 580
f 580 581 582
f 580 582 554
f 581 551 583
f 581 583 582
f 582 583 584
f 582 584 554
f 583 551 585
f 583 585 584
f 584 585 586
f 584 586 554
f 585 551 587
f 585 587 586
f 586 587 588
f 586 588 554
f 587 551 552
f 587 552 588
f 588 552 553
f 588 553 554

o tire_15
usemtl tire
v -1.050000 -0.840000 0.500000
v -0.630000 -0.840000 0.500000
v -0.630000 -1.120000 0.500000
v -1.050000 -1.120000 0.500000
v -0.633593 -0.840000 0.554821
v -0.633593 -1.120000 0.554821
v -0.644311 -0.840000 0.608704
v -0.644311 -1.120000 0.608704
v -0.661971 -0.840000 0.660727
v -0.661971 -1.120000 0.660727
v -0.686269 -0.840000 0.710000
v -0.686269 -1.120000 0.710000
v -0.716792 -0.840000 0.755680
v -0.716792 -1.120000 0.755680
v -0.753015 -0.840000 0.796985
v -0.753015 -1.120000 0.796985
v -0.794320 -0.840000 0.833208
v -0.794320 -1.120000 0.833208
v -0.840000 -0.840000 0.863731
v -0.840000 -1.120000 0.863731
v -0.889273 -0.840000 0.888029
v -0.889273 -1.120000 0.888029
v -0.941296 -0.840000 0.905689
v -0.941296 -1.120000 0.905689
v -0.995179 -0.840000 0.916407
v -0.995179 -1.120000 0.916407
v -1.050000 -0.840000 0.920000
v -1.050000 -1.120000 0.920000
v -1.104821 -0.840000 0.916407
v -1.104821 -1.120000 0.916407
v -1.158704 -0.840000 0.905689
v -1.158704 -1.120000 0.905689
v -1.210727 -0.840000 0.888029
v -1.210727 -1.120000 0.888029
v -1.260000 -0.840000 0.863731
v -1.260000 -1.120000 0.863731
v -1.305680 -0.840000 0.833208
v -1.305680 -1.120000 0.833208
v -1.346985 -0.840000 0.796985
v -1.346985 -1.120000 0.796985
v -1.383208 -0.840000 0.755680
v -1.383208 -1.120000 0.755680
v -1.413731 -0.840000 0.710000
v -1.413731 -1.120000 0.710000
v -1.438029 -0.840000 0.660727
v -1.438029 -1.120000 0.660727
v -1.455689 -0.840000 0.608704
v -1.455689 -1.120000 0.608704
v -1.466407 -0.840000 0.554821
v -1.466407 -1.120000 0.554821
v -1.470000 -0.840000 0.500000
v -1.470000 -1.120000 0.500000
v -1.466407 -0.840000 0.445179
v -1.466407 -1.120000 0.445179
v -1.455689 -0.840000 0.391296
v -1.455689 -1.120000 0.391296
v -1.438029 -0.840000 0.339273
v -1.438029 -1.120000 0.339273
v -1.413731 -0.840000 0.290000
v -1.413731 -1.120000 0.290000
v -1.383208 -0.840000 0.244320
v -1.383208 -1.120000 0.244320
v -1.346985 -0.840000 0.203015
v -1.346985 -1.120000 0.203015
v -1.305680 -0.840000 0.166792
v -1.305680 -1.120000 0.166792
v -1.260000 -0.840000 0.136269
v -1.260000 -1.120000 0.136269
v -1.210727 -0.840000 0.111971
v -1.210727 -1.120000 0.111971
v -1.158704 -0.840000 0.094311
v -1.158704 -1.120000 0.094311
v -1.104821 -0.840000 0.083593
v -1.104821 -1.120000 0.083593
v -1.050000 -0.840000 0.080000
v -1.050000 -1.120000 0.080000
v -0.995179 -0.840000 0.083593
v -0.995179 -1.120000 0.083593
v -0.941296 -0.840000 0.094311
v -0.941296 -1.120000 0.094311
v -0.889273 -0.840000 0.111971
v -0.889273 -1.120000 0.111971
v -0.840000 -0.840000 0.136269
v -0.840000 -1.120000 0.136269
v -0.794320 -0.840000 0.166792
v -0.794320 -1.120000 0.166792
v -0.753015 -0.840000 0.203015
v -0.753015 -1.120000 0.203015
v -0.716792 -0.840000 0.244320
v -0.716792 -1.120000 0.244320
v -0.686269 -0.840000 0.290000
v -0.686269 -1.120000 0.290000
v -0.661971 -0.840000 0.339273
v -0.661971 -1.120000 0.339273
v -0.644311 -0.840000 0.391296
v -0.644311 -1.120000 0.391296
v -0.633593 -0.840000 0.445179
v -0.633593 -1.120000 0.445179
f 590 589 593
f 590 593 591
f 591 593 594
f 591 594 592
f 593 589 595
f 593 595 594
f 594 595 596
f 594 596 592
f 595 589 597
f 595 597 596
f 596 597 598
f 596 598 592
f 597 589 599
f 597 599 598
f 598 599 600
f 598 600 592
f 599 589 601
f 599 601 600
f 600 601 602
f 600 602 592
f 601 589 603
f 601 603 602
f 602 603 604
f 602 604 592
f 603 589 605
f 603 605 604
f 604 605 606
f 604 606 592
f 605 589 607
f 605 607 606
f 606 607 608
f 606 608 592
f 607 589 609
f 607 609 608
f 608 609 610
f 608 610 592
f 609 589 611
f 609 611 610
f 610 611 612
f 610 612 592
f 611 589 613
f 611 613 612
f 612 613 614
f 612 614 592
f 613 589 615
f 613 615 614
f 614 615 616
f 614 616 592
f 615 589 617
f 615 617 616
f 616 617 618
f 616 618 592
f 617 589 619
f 617 619 618
f 618 619 620
f 618 620 592
f 619 589 621
f 619 621 620
f 620 621 622
f 620 622 592
f 621 589 623
f 621 623 622
f 622 623 624
f 622 624 592
f 623 589 625
f 623 625 624
f 624 625 626
f 624 626 592
f 625 589 627
f 625 627 626
f 626 627 628
f 626 628 592
f 627 589 629
f 627 629 628
f 628 629 630
f 628 630 592
f 629 589 631
f 629 631 630
f 630 631 632
f 630 632 592
f 631 589 633
f 631 633 632
f 632 633 634
f 632 634 592
f 633 589 635
f 633 635 634
f 634 635 636
f 634 636 592
f 635 589 637
f 635 637 636
f 636 637 638
f 636 638 592
f 637 589 639
f 637 639 638
f 638 639 640
f 638 640 592
f 639 589 641
f 639 641 640
f 640 641 642
f 640 642 592
f 641 589 643
f 641 643 642
f 642 643 644
f 642 644 592
f 643 589 645
f 643 645 644
f 644 645 646
f 644 646 592
f 645 589 647
f 645 647 646
f 646 647 648
f 646 648 592
f 647 589 649
f 647 649 648
f 648 649 650
f 648 650 592
f 649 589 651
f 649 651 650
f 650 651 652
f 650 652 592
f 651 589 653
f 651 653 652
f 652 653 654
f 652 654 592
f 653 589 655
f 653 655 654
f 654 655 656
f 654 656 592
f 655 589 657
f 655 657 656
f 656 657 658
f 656 658 592
f 657 589 659
f 657 659 658
f 658 659 660
f 658 660 592
f 659 589 661
f 659 661 660
f 660 661 662
f 660 662 592
f 661 589 663
f 661 663 662
f 662 663 664
f 662 664 592
f 663 589 665
f 663 665 664
f 664 665 666
f 664 666 592
f 665 589 667
f 665 667 666
f 666 667 668
f 666 668 592
f 667 589 669
f 667 669 668
f 668 669 670
f 668 670 592
f 669 589 671
f 669 671 670
f 670 671 672
f 670 672 592
f 671 589 673
f 671 673 672
f 672 673 674
f 672 674 592
f 673 589 675
f 673 675 674
f 674 675 676
f 674 676 592
f 675 589 677
f 675 677 676
f 676 677 678
f 676 678 592
f 677 589 679
f 677 679 678
f 678 679 680
f 678 680 592
f 679 589 681
f 679 681 680
f 680 681 682
f 680 682 592
f 681 589 683
f 681 683 682
f 682 683 684
f 682 684 592
f 683 589 685
f 683 685 684
f 684 685 686
f 684 686 592
f 685 589 590
f 685 590 686
f 686 590 591
f 686 591 592

o rim_16
usemtl rim
v -1.050000 -0.830000 0.500000
v -0.800000 -0.830000 0.500000
v -0.800000 -1.130000 0.500000
v -1.050000 -1.130000 0.500000
v -0.803798 -0.830000 0.543412
v -0.803798 -1.130000 0.543412
v -0.815077 -0.830000 0.585505
v -0.815077 -1.130000 0.585505
v -0.833494 -0.830000 0.625000
v -0.833494 -1.130000 0.625000
v -0.858489 -0.830000 0.660697
v -0.858489 -1.130000 0.660697
v -0.889303 -0.830000 0.691511
v -0.889303 -1.130000 0.691511
v -0.925000 -0.830000 0.716506
v -0.925000 -1.130000 0.716506
v -0.964495 -0.830000 0.734923
v -0.964495 -1.130000 0.734923
v -1.006588 -0.830000 0.746202
v -1.006588 -1.130000 0.746202
v -1.050000 -0.830000 0.750000
v -1.050000 -1.130000 0.750000
v -1.093412 -0.830000 0.746202
v -1.093412 -1.130000 0.746202
v -1.135505 -0.830000 0.734923
v -1.135505 -1.130000 0.734923
v -1.175000 -0.830000 0.716506
v -1.175000 -1.130000 0.716506
v -1.210697 -0.830000 0.691511
v -1.210697 -1.130000 0.691511
v -1.241511 -0.830000 0.660697
v -1.241511 -1.130000 0.660697
v -1.266506 -0.830000 0.625000
v -1.266506 -1.130000 0.625000
v -1.284923 -0.830000 0.585505
v -1.284923 -1.130000 0.585505
v -1.296202 -0.830000 0.543412
v -1.296202 -1.130000 0.543412
v -1.300000 -0.830000 0.500000
v -1.300000 -1.130000 0.500000
v -1.296202 -0.830000 0.456588
v -1.296202 -1.130000 0.456588
v -1.284923 -0.830000 0.414495
v -1.284923 -1.130000 0.414495
v -1.266506 -0.830000 0.375000
v -1.266506 -1.130000 0.375000
v -1.241511 -0.830000 0.339303
v -1.241511 -1.130000 0.339303
v -1.210697 -0.830000 0.308489
v -1.210697 -1.130000 0.308489
v -1.175000 -0.830000 0.283494
v -1.175000 -1.130000 0.283494
v -1.135505 -0.830000 0.265077
v -1.135505 -1.130000 0.265077
v -1.093412 -0.830000 0.253798
v -1.093412 -1.130000 0.253798
v -1.050000 -0.830000 0.250000
v -1.050000 -1.130000 0.250000
v -1.006588 -0.830000 0.253798
v -1.006588 -1.130000 0.253798
v -0.964495 -0.830000 0.265077
v -0.964495 -1.130000 0.265077
v -0.925000 -0.830000 0.283494
v -0.925000 -1.130000 0.283494
v -0.889303 -0.830000 0.308489
v -0.889303 -1.130000 0.308489
v -0.858489 -0.830000 0.339303
v -0.858489 -1.130000 0.339303
v -0.833494 -0.830000 0.375000
v -0.833494 -1.130000 0.375000
v -0.815077 -0.830000 0.414495
v -0.815077 -1.130000 0.414495
v -0.803798 -0.830000 0.456588
v -0.803798 -1.130000 0.456588
f 688 687 691
f 688 691 689
f 689 691 692
f 689 692 690
f 691 687 693
f 691 693 692
f 692 693 694
f 692 694 690
f 693 687 695
f 693 695 694
f 694 695 696
f 694 696 690
f 695 687 697
f 695 697 696
f 696 697 698
f 696 698 690
f 697 687 699
f 697 699 698
f 698 699 700
f 698 700 690
f 699 687 701
f 699 701 700
f 700 701 702
f 700 702 690
f 701 687 703
f 701 703 702
f 702 703 704
f 702 704 690
f 703 687 705
f 703 705 704
f 704 705 706
f 704 706 690
f 705 687 707
f 705 707 706
f 706 707 708
f 706 708 690
f 707 687 709
f 707 709 708
f 708 709 710
f 708 710 690
f 709 687 711
f 709 711 710
f 710 711 712
f 710 712 690
f 711 687 713
f 711 713 712
f 712 713 714
f 712 714 690
f 713 687 715
f 713 715 714
f 714 715 716
f 714 716 690
f 715 687 717
f 715 717 716
f 716 717 718
f 716 718 690
f 717 687 719
f 717 719 718
f 718 719 720
f 718 720 690
f 719 687 721
f 719 721 720
f 720 721 722
f 720 722 690
f 721 687 723
f 721 723 722
f 722 723 724
f 722 724 690
f 723 687 725
f 723 725 724
f 724 725 726
f 724 726 690
f 725 687 727
f 725 727 726
f 726 727 728
f 726 728 690
f 727 687 729
f 727 729 728
f 728 729 730
f 728 730 690
f 729 687 731
f 729 731 730
f 730 731 732
f 730 732 690
f 731 687 733
f 731 733 732
f 732 733 734
f 732 734 690
f 733 687 735
f 733 735 734
f 734 735 736
f 734 736 690
f 735 687 737
f 735 737 736
f 736 737 738
f 736 738 690
f 737 687 739
f 737 739 738
f 738 739 740
f 738 740 690
f 739 687 741
f 739 741 740
f 740 741 742
f 740 742 690
f 741 687 743
f 741 743 742
f 742 743 744
f 742 744 690
f 743 687 745
f 743 745 744
f 744 745 746
f 744 746 690
f 745 687 747
f 745 747 746
f 746 747 748
f 746 748 690
f 747 687 749
f 747 749 748
f 748 749 750
f 748 750 690
f 749 687 751
f 749 751 750
f 750 751 752
f 750 752 690
f 751 687 753
f 751 753 752
f 752 753 754
f 752 754 690
f 753 687 755
f 753 755 754
f 754 755 756
f 754 756 690
f 755 687 757
f 755 757 756
f 756 757 758
f 756 758 690
f 757 687 759
f 757 759 758
f 758 759 760
f 758 760 690
f 759 687 688
f 759 688 760
f 760 688 689
f 760 689 690

o tire_17
usemtl tire
v -1.050000 1.120000 0.500000
v -0.630000 1.120000 0.500000
v -0.630000 0.840000 0.500000
v -1.050000 0.840000 0.500000
v -0.633593 1.120000 0.554821
v -0.633593 0.840000 0.554821
v -0.644311 1.120000 0.608704
v -0.644311 0.840000 0.608704
v -0.661971 1.120000 0.660727
v -0.661971 0.840000 0.660727
v -0.686269 1.120000 0.710000
v -0.686269 0.840000 0.710000
v -0.716792 1.120000 0.755680
v -0.716792 0.840000 0.755680
v -0.753015 1.120000 0.796985
v -0.753015 0.840000 0.796985
v -0.794320 1.120000 0.833208
v -0.794320 0.840000 0.833208
v -0.840000 1.120000 0.863731
v -0.840000 0.840000 0.863731
v -0.889273 1.120000 0.888029
v -0.889273 0.840000 0.888029
v -0.941296 1.120000 0.905689
v -0.941296 0.840000 0.905689
v -0.995179 1.120000 0.916407
v -0.995179 0.840000 0.916407
v -1.050000 1.120000 0.920000
v -1.050000 0.840000 0.920000
v -1.104821 1.120000 0.916407
v -1.104821 0.840000 0.916407
v -1.158704 1.120000 0.905689
v -1.158704 0.840000 0.905689
v -1.210727 1.120000 0.888029
v -1.210727 0.840000 0.888029
v -1.260000 1.120000 0.863731
v -1.260000 0.840000 0.863731
v -1.305680 1.120000 0.833208
v -1.305680 0.840000 0.833208
v -1.346985 1.120000 0.796985
v -1.346985 0.840000 0.796985
v -1.383208 1.120000 0.755680
v -1.383208 0.840000 0.755680
v -1.413731 1.120000 0.710000
v -1.413731 0.840000 0.710000
v -1.438029 1.120000 0.660727
v -1.438029 0.840000 0.660727
v -1.455689 1.120000 0.608704
v -1.455689 0.840000 0.608704
v -1.466407 1.120000 0.554821
v -1.466407 0.840000 0.554821
v -1.470000 1.120000 0.500000
v -1.470000 0.840000 0.500000
v -1.466407 1.120000 0.445179
v -1.466407 0.840000 0.445179
v -1.455689 1.120000 0.391296
v -1.455689 0.840000 0.391296
v -1.438029 1.120000 0.339273
v -1.438029 0.840000 0.339273
v -1.413731 1.120000 0.290000
v -1.413731 0.840000 0.290000
v -1.383208 1.120000 0.244320
v -1.383208 0.840000 0.244320
v -1.346985 1.120000 0.203015
v -1.346985 0.840000 0.203015
v -1.305680 1.120000 0.166792
v -1.305680 0.840000 0.166792
v -1.260000 1.120000 0.136269
v -1.260000 0.840000 0.136269
v -1.210727 1.120000 0.111971
v -1.210727 0.840000 0.111971
v -1.158704 1.120000 0.094311
v -1.158704 0.840000 0.094311
v -1.104821 1.120000 0.083593
v -1.104821 0.840000 0.083593
v -1.050000 1.120000 0.080000
v -1.050000 0.840000 0.080000
v -0.995179 1.120000 0.083593
v -0.995179 0.840000 0.083593
v -0.941296 1.120000 0.094311
v -0.941296 0.840000 0.094311
v -0.889273 1.120000 0.111971
v -0.889273 0.840000 0.111971
v -0.840000 1.120000 0.136269
v -0.840000 0.840000 0.136269
v -0.794320 1.120000 0.166792
v -0.794320 0.840000 0.166792
v -0.753015 1.120000 0.203015
v -0.753015 0.840000 0.203015
v -0.716792 1.120000 0.244320
v -0.716792 0.840000 0.244320
v -0.686269 1.120000 0.290000
v -0.686269 0.840000 0.290000
v -0.661971 1.120000 0.339273
v -0.661971 0.840000 0.339273
v -0.644311 1.120000 0.391296
v -0.644311 0.840000 0.391296
v -0.633593 1.120000 0.445179
v -0.633593 0.840000 0.445179
f 762 761 765
f 762 765 763
f 763 765 766
f 763 766 764
f 765 761 767
f 765 767 766
f 766 767 768
f 766 768 764
f 767 761 769
f 767 769 768
f 768 769 770
f 768 770 764
f 769 761 771
f 769 771 770
f 770 771 772
f 770 772 764
f 771 761 773
f 771 773 772
f 772 773 774
f 772 774 764
f 773 761 775
f 773 775 774
f 774 775 776
f 774 776 764
f 775 761 777
f 775 777 776
f 776 777 778
f 776 778 764
f 777 761 779
f 777 779 778
f 778 779 780
f 778 780 764
f 779 761 781
f 779 781 780
f 780 781 782
f 780 782 764
f 781 761 783
f 781 783 782
f 782 783 784
f 782 784 764
f 783 761 785
f 783 785 784
f 784 785 786
f 784 786 764
f 785 761 787
f 785 787 786
f 786 787 788
f 786 788 764
f 787 761 789
f 787 789 788
f 788 789 790
f 788 790 764
f 789 761 791
f 789 791 790
f 790 791 792
f 790 792 764
f 791 761 793
f 791 793 792
f 792 793 794
f 792 794 764
f 793 761 795
f 793 795 794
f 794 795 796
f 794 796 764
f 795 761 797
f 795 797 796
f 796 797 798
f 796 798 764
f 797 761 799
f 797 799 798
f 798 799 800
f 798 800 764
f 799 761 801
f 799 801 800
f 800 801 802
f 800 802 764
f 801 761 803
f 801 803 802
f 802 803 804
f 802 804 764
f 803 761 805
f 803 805 804
f 804 805 806
f 804 806 764
f 805 761 807
f 805 807 806
f 806 807 808
f 806 808 764
f 807 761 809
f 807 809 808
f 808 809 810
f 808 810 764
f 809 761 811
f 809 811 810
f 810 811 812
f 810 812 764
f 811 761 813
f 811 813 812
f 812 813 814
f 812 814 764
f 813 761 815
f 813 815 814
f 814 815 816
f 814 816 764
f 815 761 817
f 815 817 816
f 816 817 818
f 816 818 764
f 817 761 819
f 817 819 818
f 818 819 820
f 818 820 764
f 819 761 821
f 819 821 820
f 820 821 822
f 820 822 764
f 821 761 823
f 821 823 822
f 822 823 824
f 822 824 764
f 823 761 825
f 823 825 824
f 824 825 826
f 824 826 764
f 825 761 827
f 825 827 826
f 826 827 828
f 826 828 764
f 827 761 829
f 827 829 828
f 828 829 830
f 828 830 764
f 829 761 831
f 829 831 830
f 830 831 832
f 830 832 764
f 831 761 833
f 831 833 832
f 832 833 834
f 832 834 764
f 833 761 835
f 833 835 834
f 834 835 836
f 834 836 764
f 835 761 837
f 835 837 836
f 836 837 838
f 836 838 764
f 837 761 839
f 837 839 838
f 838 839 840
f 838 840 764
f 839 761 841
f 839 841 840
f 840 841 842
f 840 842 764
f 841 761 843
f 841 843 842
f 842 843 844
f 842 844 764
f 843 761 845
f 843 845 844
f 844 845 846
f 844 846 764
f 845 761 847
f 845 847 846
f 846 847 848
f 846 848 764
f 847 761 849
f 847 849 848
f 848 849 850
f 848 850 764
f 849 761 851
f 849 851 850
f 850 851 852
f 850 852 764
f 851 761 853
f 851 853 852
f 852 853 854
f 852 854 764
f 853 761 855
f 853 855 854
f 854 855 856
f 854 856 764
f 855 761 857
f 855 857 856
f 856 857 858
f 856 858 764
f 857 761 762
f 857 762 858
f 858 762 763
f 858 763 764

o rim_18
usemtl rim
v -1.050000 1.130000 0.500000
v -0.800000 1.130000 0.500000
v -0.800000 0.830000 0.500000
v -1.050000 0.830000 0.500000
v -0.803798 1.130000 0.543412
v -0.803798 0.830000 0.543412
v -0.815077 1.130000 0.585505
v -0.815077 0.830000 0.585505
v -0.833494 1.130000 0.625000
v -0.833494 0.830000 0.625000
v -0.858489 1.130000 0.660697
v -0.858489 0.830000 0.660697
v -0.889303 1.130000 0.691511
v -0.889303 0.830000 0.691511
v -0.925000 1.130000 0.716506
v -0.925000 0.830000 0.716506
v -0.964495 1.130000 0.734923
v -0.964495 0.830000 0.734923
v -1.006588 1.130000 0.746202
v -1.006588 0.830000 0.746202
v -1.050000 1.130000 0.750000
v -1.050000 0.830000 0.750000
v -1.093412 1.130000 0.746202
v -1.093412 0.830000 0.746202
v -1.135505 1.130000 0.734923
v -1.135505 0.830000 0.734923
v -1.175000 1.130000 0.716506
v -1.175000 0.830000 0.716506
v -1.210697 1.130000 0.691511
v -1.210697 0.830000 0.691511
v -1.241511 1.130000 0.660697
v -1.241511 0.830000 0.660697
v -1.266506 1.130000 0.625000
v -1.266506 0.830000 0.625000
v -1.284923 1.130000 0.585505
v -1.284923 0.830000 0.585505
v -1.296202 1.130000 0.543412
v -1.296202 0.830000 0.543412
v -1.300000 1.130000 0.500000
v -1.300000 0.830000 0.500000
v -1.296202 1.130000 0.456588
v -1.296202 0.830000 0.456588
v -1.284923 1.130000 0.414495
v -1.284923 0.830000 0.414495
v -1.266506 1.130000 0.375000
v -1.266506 0.830000 0.375000
v -1.241511 1.130000 0.339303
v -1.241511 0.830000 0.339303
v -1.210697 1.130000 0.308489
v -1.210697 0.830000 0.308489
v -1.175000 1.130000 0.283494
v -1.175000 0.830000 0.283494
v -1.135505 1.130000 0.265077
v -1.135505 0.830000 0.265077
v -1.093412 1.130000 0.253798
v -1.093412 0.830000 0.253798
v -1.050000 1.130000 0.250000
v -1.050000 0.830000 0.250000
v -1.006588 1.130000 0.253798
v -1.006588 0.830000 0.253798
v -0.964495 1.130000 0.265077
v -0.964495 0.830000 0.265077
v -0.925000 1.130000 0.283494
v -0.925000 0.830000 0.283494
v -0.889303 1.130000 0.308489
v -0.889303 0.830000 0.308489
v -0.858489 1.130000 0.339303
v -0.858489 0.830000 0.339303
v -0.833494 1.130000 0.375000
v -0.833494 0.830000 0.375000
v -0.815077 1.130000 0.414495
v -0.815077 0.830000 0.414495
v -0.803798 1.130000 0.456588
v -0.803798 0.830000 0.456588
f 860 859 863
f 860 863 861
f 861 863 864
f 861 864 862
f 863 859 865
f 863 865 864
f 864 865 866
f 864 866 862
f 865 859 867
f 865 867 866
f 866 867 868
f 866 868 862
f 867 859 869
f 867 869 868
f 868 869 870
f 868 870 862
f 869 859 871
f 869 871 870
f 870 871 872
f 870 872 862
f 871 859 873
f 871 873 872
f 872 873 874
f 872 874 862
f 873 859 875
f 873 875 874
f 874 875 876
f 874 876 862
f 875 859 877
f 875 877 876
f 876 877 878
f 876 878 862
f 877 859 879
f 877 879 878
f 878 879 880
f 878 880 862
f 879 859 881
f 879 881 880
f 880 881 882
f 880 882 862
f 881 859 883
f 881 883 882
f 882 883 884
f 882 884 862
f 883 859 885
f 883 885 884
f 884 885 886
f 884 886 862
f 885 859 887
f 885 887 886
f 886 887 888
f 886 888 862
f 887 859 889
f 887 889 888
f 888 889 890
f 888 890 862
f 889 859 891
f 889 891 890
f 890 891 892
f 890 892 862
f 891 859 893
f 891 893 892
f 892 893 894
f 892 894 862
f 893 859 895
f 893 895 894
f 894 895 896
f 894 896 862
f 895 859 897
f 895 897 896
f 896 897 898
f 896 898 862
f 897 859 899
f 897 899 898
f 898 899 900
f 898 900 862
f 899 859 901
f 899 901 900
f 900 901 902
f 900 902 862
f 901 859 903
f 901 903 902
f 902 903 904
f 902 904 862
f 903 859 905
f 903 905 904
f 904 905 906
f 904 906 862
f 905 859 907
f 905 907 906
f 906 907 908
f 906 908 862
f 907 859 909
f 907 909 908
f 908 909 910
f 908 910 862
f 909 859 911
f 909 911 910
f 910 911 912
f 910 912 862
f 911 859 913
f 911 913 912
f 912 913 914
f 912 914 862
f 913 859 915
f 913 915 914
f 914 915 916
f 914 916 862
f 915 859 917
f 915 917 916
f 916 917 918
f 916 918 862
f 917 859 919
f 917 919 918
f 918 919 920
f 918 920 862
f 919 859 921
f 919 921 920
f 920 921 922
f 920 922 862
f 921 859 923
f 921 923 922
f 922 923 924
f 922 924 862
f 923 859 925
f 923 925 924
f 924 925 926
f 924 926 862
f 925 859 927
f 925 927 926
f 926 927 928
f 926 928 862
f 927 859 929
f 927 929 928
f 928 929 930
f 928 930 862
f 929 859 931
f 929 931 930
f 930 931 932
f 930 932 862
f 931 859 860
f 931 860 932
f 932 860 861
f 932 861 862

o tire_19
usemtl tire
v 1.050000 -0.840000 0.500000
v 1.470000 -0.840000 0.500000
v 1.470000 -1.120000 0.500000
v 1.050000 -1.120000 0.500000
v 1.466407 -0.840000 0.554821
v 1.466407 -1.120000 0.554821
v 1.455689 -0.840000 0.608704
v 1.455689 -1.120000 0.608704
v 1.438029 -0.840000 0.660727
v 1.438029 -1.120000 0.660727
v 1.413731 -0.840000 0.710000
v 1.413731 -1.120000 0.710000
v 1.383208 -0.840000 0.755680
v 1.383208 -1.120000 0.755680
v 1.346985 -0.840000 0.796985
v 1.346985 -1.120000 0.796985
v 1.305680 -0.840000 0.833208
v 1.305680 -1.120000 0.833208
v 1.260000 -0.840000 0.863731
v 1.260000 -1.120000 0.863731
v 1.210727 -0.840000 0.888029
v 1.210727 -1.120000 0.888029
v 1.158704 -0.840000 0.905689
v 1.158704 -1.120000 0.905689
v 1.104821 -0.840000 0.916407
v 1.104821 -1.120000 0.916407
v 1.050000 -0.840000 0.920000
v 1.050000 -1.120000 0.920000
v 0.995179 -0.840000 0.916407
v 0.995179 -1.120000 0.916407
v 0.941296 -0.840000 0.905689
v 0.941296 -1.120000 0.905689
v 0.889273 -0.840000 0.888029
v 0.889273 -1.120000 0.888029
v 0.840000 -0.840000 0.863731
v 0.840000 -1.120000 0.863731
v 0.794320 -0.840000 0.833208
v 0.794320 -1.120000 0.833208
v 0.753015 -0.840000 0.796985
v 0.753015 -1.120000 0.796985
v 0.716792 -0.840000 0.755680
v 0.716792 -1.120000 0.755680
v 0.686269 -0.840000 0.710000
v 0.686269 -1.120000 0.710000
v 0.661971 -0.840000 0.660727
v 0.661971 -1.120000 0.660727
v 0.644311 -0.840000 0.608704
v 0.644311 -1.120000 0.608704
v 0.633593 -0.840000 0.554821
v 0.633593 -1.120000 0.554821
v 0.630000 -0.840000 0.500000
v 0.630000 -1.120000 0.500000
v 0.633593 -0.840000 0.445179
v 0.633593 -1.120000 0.445179
v 0.644311 -0.840000 0.391296
v 0.644311 -1.120000 0.391296
v 0.661971 -0.840000 0.339273
v 0.661971 -1.120000 0.339273
v 0.686269 -0.840000 0.290000
v 0.686269 -1.120000 0.290000
v 0.716792 -0.840000 0.244320
v 0.716792 -1.120000 0.244320
v 0.753015 -0.840000 0.203015
v 0.753015 -1.120000 0.203015
v 0.794320 -0.840000 0.166792
v 0.794320 -1.120000 0.166792
v 0.840000 -0.840000 0.136269
v 0.840000 -1.120000 0.136269
v 0.889273 -0.840000 0.111971
v 0.889273 -1.120000 0.111971
v 0.941296 -0.840000 0.094311
v 0.941296 -1.120000 0.094311
v 0.995179 -0.840000 0.083593
v 0.995179 -1.120000 0.083593
v 1.050000 -0.840000 0.080000
v 1.050000 -1.120000 0.080000
v 1.104821 -0.840000 0.083593
v 1.104821 -1.120000 0.083593
v 1.158704 -0.840000 0.094311
v 1.158704 -1.120000 0.094311
v 1.210727 -0.840000 0.111971
v 1.210727 -1.120000 0.111971
v 1.260000 -0.840000 0.136269
v 1.260000 -1.120000 0.136269
v 1.305680 -0.840000 0.166792
v 1.305680 -1.120000 0.166792
v 1.346985 -0.840000 0.203015
v 1.346985 -1.120000 0.203015
v 1.383208 -0.840000 0.244320
v 1.383208 -1.120000 0.244320
v 1.413731 -0.840000 0.290000
v 1.413731 -1.120000 0.290000
v 1.438029 -0.840000 0.339273
v 1.438029 -1.120000 0.339273
v 1.455689 -0.840000 0.391296
v 1.455689 -1.120000 0.391296
v 1.466407 -0.840000 0.445179
v 1.466407 -1.120000 0.445179
f 934 933 937
f 934 937 935
f 935 937 938
f 935 938 936
f 937 933 939
f 937 939 938
f 938 939 940
f 938 940 936
f 939 933 941
f 939 941 940
f 940 941 942
f 940 942 936
f 941 933 943
f 941 943 942
f 942 943 944
f 942 944 936
f 943 933 945
f 943 945 944
f 944 945 946
f 944 946 936
f 945 933 947
f 945 947 946
f 946 947 948
f 946 948 936
f 947 933 949
f 947 949 948
f 948 949 950
f 948 950 936
f 949 933 951
f 949 951 950
f 950 951 952
f 950 952 936
f 951 933 953
f 951 953 952
f 952 953 954
f 952 954 936
f 953 933 955
f 953 955 954
f 954 955 956
f 954 956 936
f 955 933 957
f 955 957 956
f 956 957 958
f 956 958 936
f 957 933 959
f 957 959 958
f 958 959 960
f 958 960 936
f 959 933 961
f 959 961 960
f 960 961 962
f 960 962 936
f 961 933 963
f 961 963 962
f 962 963 964
f 962 964 936
f 963 933 965
f 963 965 964
f 964 965 966
f 964 966 936
f 965 933 967
f 965 967 966
f 966 967 968
f 966 968 936
f 967 933 969
f 967 969 968
f 968 969 970
f 968 970 936
f 969 933 971
f 969 971 970
f 970 971 972
f 970 972 936
f 971 933 973
f 971 973 972
f 972 973 974
f 972 974 936
f 973 933 975
f 973 975 974
f 974 975 976
f 974 976 936
f 975 933 977
f 975 977 976
f 976 977 978
f 976 978 936
f 977 933 979
f 977 979 978
f 978 979 980
f 978 980 936
f 979 933 981
f 979 981 980
f 980 981 982
f 980 982 936
f 981 933 983
f 981 983 982
f 982 983 984
f 982 984 936
f 983 933 985
f 983 985 984
f 984 985 986
f 984 986 936
f 985 933 987
f 985 987 986
f 986 987 988
f 986 988 936
f 987 933 989
f 987 989 988
f 988 989 990
f 988 990 936
f 989 933 991
f 989 991 990
f 990 991 992
f 990 992 936
f 991 933 993
f 991 993 992
f 992 993 994
f 992 994 936
f 993 933 995
f 993 995 994
f 994 995 996
f 994 996 936
f 995 933 997
f 995 997 996
f 996 997 998
f 996 998 936
f 997 933 999
f 997 999 998
f 998 999 1000
f 998 1000 936
f 999 933 1001
f 999 1001 1000
f 1000 1001 1002
f 1000 1002 936
f 1001 933 1003
f 1001 1003 1002
f 1002 1003 1004
f 1002 1004 936
f 1003 933 1005
f 1003 1005 1004
f 1004 1005 1006
f 1004 1006 936
f 1005 933 1007
f 1005 1007 1006
f 1006 1007 1008
f 1006 1008 936
f 1007 933 1009
f 1007 1009 1008
f 1008 1009 1010
f 1008 1010 936
f 1009 933 1011
f 1009 1011 1010
f 1010 1011 1012
f 1010 1012 936
f 1011 933 1013
f 1011 1013 1012
f 1012 1013 1014
f 1012 1014 936
f 1013 933 1015
f 1013 1015 1014
f 1014 1015 1016
f 1014 1016 936
f 1015 933 1017
f 1015 1017 1016
f 1016 1017 1018
f 1016 1018 936
f 1017 933 1019
f 1017 1019 1018
f 1018 1019 1020
f 1018 1020 936
f 1019 933 1021
f 1019 1021 1020
f 1020 1021 1022
f 1020 1022 936
f 1021 933 1023
f 1021 1023 1022
f 1022 1023 1024
f 1022 1024 936
f 1023 933 1025
f 1023 1025 1024
f 1024 1025 1026
f 1024 1026 936
f 1025 933 1027
f 1025 1027 1026
f 1026 1027 1028
f 1026 1028 936
f 1027 933 1029
f 1027 1029 1028
f 1028 1029 1030
f 1028 1030 936
f 1029 933 934
f 1029 934 1030
f 1030 934 935
f 1030 935 936

o rim_20
usemtl rim
v 1.050000 -0.830000 0.500000
v 1.300000 -0.830000 0.500000
v 1.300000 -1.130000 0.500000
v 1.050000 -1.130000 0.500000
v 1.296202 -0.830000 0.543412
v 1.296202 -1.130000 0.543412
v 1.284923 -0.830000 0.585505
v 1.284923 -1.130000 0.585505
v 1.266506 -0.830000 0.625000
v 1.266506 -1.130000 0.625000
v 1.241511 -0.830000 0.660697
v 1.241511 -1.130000 0.660697
v 1.210697 -0.830000 0.691511
v 1.210697 -1.130000 0.691511
v 1.175000 -0.830000 0.716506
v 1.175000 -1.130000 0.716506
v 1.135505 -0.830000 0.734923
v 1.135505 -1.130000 0.734923
v 1.093412 -0.830000 0.746202
v 1.093412 -1.130000 0.746202
v 1.050000 -0.830000 0.750000
v 1.050000 -1.130000 0.750000
v 1.006588 -0.830000 0.746202
v 1.006588 -1.130000 0.746202
v 0.964495 -0.830000 0.734923
v 0.964495 -1.130000 0.734923
v 0.925000 -0.830000 0.716506
v 0.925000 -1.130000 0.716506
v 0.889303 -0.830000 0.691511
v 0.889303 -1.130000 0.691511
v 0.858489 -0.830000 0.660697
v 0.858489 -1.130000 0.660697
v 0.833494 -0.830000 0.625000
v 0.833494 -1.130000 0.625000
v 0.815077 -0.830000 0.585505
v 0.815077 -1.130000 0.585505
v 0.803798 -0.830000 0.543412
v 0.803798 -1.130000 0.543412
v 0.800000 -0.830000 0.500000
v 0.800000 -1.130000 0.500000
v 0.803798 -0.830000 0.456588
v 0.803798 -1.130000 0.456588
v 0.815077 -0.830000 0.414495
v 0.815077 -1.130000 0.414495
v 0.833494 -0.830000 0.375000
v 0.833494 -1.130000 0.375000
v 0.858489 -0.830000 0.339303
v 0.858489 -1.130000 0.339303
v 0.889303 -0.830000 0.308489
v 0.889303 -1.130000 0.308489
v 0.925000 -0.830000 0.283494
v 0.925000 -1.130000 0.283494
v 0.964495 -0.830000 0.265077
v 0.964495 -1.130000 0.265077
v 1.006588 -0.830000 0.253798
v 1.006588 -1.130000 0.253798
v 1.050000 -0.830000 0.250000
v 1.050000 -1.130000 0.250000
v 1.093412 -0.830000 0.253798
v 1.093412 -1.130000 0.253798
v 1.135505 -0.830000 0.265077
v 1.135505 -1.130000 0.265077
v 1.175000 -0.830000 0.283494
v 1.175000 -1.130000 0.283494
v 1.210697 -0.830000 0.308489
v 1.210697 -1.130000 0.308489
v 1.241511 -0.830000 0.339303
v 1.241511 -1.130000 0.339303
v 1.266506 -0.830000 0.375000
v 1.266506 -1.130000 0.375000
v 1.284923 -0.830000 0.414495
v 1.284923 -1.130000 0.414495
v 1.296202 -0.830000 0.456588
v 1.296202 -1.130000 0.456588
f 1032 1031 1035
f 1032 1035 1033
f 1033 1035 1036
f 1033 1036 1034
f 1035 1031 1037
f 1035 1037 1036
f 1036 1037 1038
f 1036 1038 1034
f 1037 1031 1039
f 1037 1039 1038
f 1038 1039 1040
f 1038 1040 1034
f 1039 1031 1041
f 1039 1041 1040
f 1040 1041 1042
f 1040 1042 1034
f 1041 1031 1043
f 1041 1043 1042
f 1042 1043 1044
f 1042 1044 1034
f 1043 1031 1045
f 1043 1045 1044
f 1044 1045 1046
f 1044 1046 1034
f 1045 1031 1047
f 1045 1047 1046
f 1046 1047 1048
f 1046 1048 1034
f 1047 1031 1049
f 1047 1049 1048
f 1048 1049 1050
f 1048 1050 1034
f 1049 1031 1051
f 1049 1051 1050
f 1050 1051 1052
f 1050 1052 1034
f 1051 1031 1053
f 1051 1053 1052
f 1052 1053 1054
f 1052 1054 1034
f 1053 1031 1055
f 1053 1055 1054
f 1054 1055 1056
f 1054 1056 1034
f 1055 1031 1057
f 1055 1057 1056
f 1056 1057 1058
f 1056 1058 1034
f 1057 1031 1059
f 1057 1059 1058
f 1058 1059 1060
f 1058 1060 1034
f 1059 1031 1061
f 1059 1061 1060
f 1060 1061 1062
f 1060 1062 1034
f 1061 1031 1063
f 1061 1063 1062
f 1062 1063 1064
f 1062 1064 1034
f 1063 1031 1065
f 1063 1065 1064
f 1064 1065 1066
f 1064 1066 1034
f 1065 1031 1067
f 1065 1067 1066
f 1066 1067 1068
f 1066 1068 1034
f 1067 1031 1069
f 1067 1069 1068
f 1068 1069 1070
f 1068 1070 1034
f 1069 1031 1071
f 1069 1071 1070
f 1070 1071 1072
f 1070 1072 1034
f 1071 1031 1073
f 1071 1073 1072
f 1072 1073 1074
f 1072 1074 1034
f 1073 1031 1075
f 1073 1075 1074
f 1074 1075 1076
f 1074 1076 1034
f 1075 1031 1077
f 1075 1077 1076
f 1076 1077 1078
f 1076 1078 1034
f 1077 1031 1079
f 1077 1079 1078
f 1078 1079 1080
f 1078 1080 1034
f 1079 1031 1081
f 1079 1081 1080
f 1080 1081 1082
f 1080 1082 1034
f 1081 1031 1083
f 1081 1083 1082
f 1082 1083 1084
f 1082 1084 1034
f 1083 1031 1085
f 1083 1085 1084
f 1084 1085 1086
f 1084 1086 1034
f 1085 1031 1087
f 1085 1087 1086
f 1086 1087 1088
f 1086 1088 1034
f 1087 1031 1089
f 1087 1089 1088
f 1088 1089 1090
f 1088 1090 1034
f 1089 1031 1091
f 1089 1091 1090
f 1090 1091 1092
f 1090 1092 1034
f 1091 1031 1093
f 1091 1093 1092
f 1092 1093 1094
f 1092 1094 1034
f 1093 1031 1095
f 1093 1095 1094
f 1094 1095 1096
f 1094 1096 1034
f 1095 1031 1097
f 1095 1097 1096
f 1096 1097 1098
f 1096 1098 1034
f 1097 1031 1099
f 1097 1099 1098
f 1098 1099 1100
f 1098 1100 1034
f 1099 1031 1101
f 1099 1101 1100
f 1100 1101 1102
f 1100 1102 1034
f 1101 1031 1103
f 1101 1103 1102
f 1102 1103 1104
f 1102 1104 1034
f 1103 1031 1032
f 1103 1032 1104
f 1104 1032 1033
f 1104 1033 1034

o tire_21
usemtl tire
v 1.050000 1.120000 0.500000
v 1.470000 1.120000 0.500000
v 1.470000 0.840000 0.500000
v 1.050000 0.840000 0.500000
v 1.466407 1.120000 0.554821
v 1.466407 0.840000 0.554821
v 1.455689 1.120000 0.608704
v 1.455689 0.840000 0.608704
v 1.438029 1.120000 0.660727
v 1.438029 0.840000 0.660727
v 1.413731 1.120000 0.710000
v 1.413731 0.840000 0.710000
v 1.383208 1.120000 0.755680
v 1.383208 0.840000 0.755680
v 1.346985 1.120000 0.796985
v 1.346985 0.840000 0.796985
v 1.305680 1.120000 0.833208
v 1.305680 0.840000 0.833208
v 1.260000 1.120000 0.863731
v 1.260000 0.840000 0.863731
v 1.210727 1.120000 0.888029
v 1.210727 0.840000 0.888029
v 1.158704 1.120000 0.905689
v 1.158704 0.840000 0.905689
v 1.104821 1.120000 0.916407
v 1.104821 0.840000 0.916407
v 1.050000 1.120000 0.920000
v 1.050000 0.840000 0.920000
v 0.995179 1.120000 0.916407
v 0.995179 0.840000 0.916407
v 0.941296 1.120000 0.905689
v 0.941296 0.840000 0.905689
v 0.889273 1.120000 0.888029
v 0.889273 0.840000 0.888029
v 0.840000 1.120000 0.863731
v 0.840000 0.840000 0.863731
v 0.794320 1.120000 0.833208
v 0.794320 0.840000 0.833208
v 0.753015 1.120000 0.796985
v 0.753015 0.840000 0.796985
v 0.716792 1.120000 0.755680
v 0.716792 0.840000 0.755680
v 0.686269 1.120000 0.710000
v 0.686269 0.840000 0.710000
v 0.661971 1.120000 0.660727
v 0.661971 0.840000 0.660727
v 0.644311 1.120000 0.608704
v 0.644311 0.840000 0.608704
v 0.633593 1.120000 0.554821
v 0.633593 0.840000 0.554821
v 0.630000 1.120000 0.500000
v 0.630000 0.840000 0.500000
v 0.633593 1.120000 0.445179
v 0.633593 0.840000 0.445179
v 0.644311 1.120000 0.391296
v 0.644311 0.840000 0.391296
v 0.661971 1.120000 0.339273
v 0.661971 0.840000 0.339273
v 0.686269 1.120000 0.290000
v 0.686269 0.840000 0.290000
v 0.716792 1.120000 0.244320
v 0.716792 0.840000 0.244320
v 0.753015 1.120000 0.203015
v 0.753015 0.840000 0.203015
v 0.794320 1.120000 0.166792
v 0.794320 0.840000 0.166792
v 0.840000 1.120000 0.136269
v 0.840000 0.840000 0.136269
v 0.889273 1.120000 0.111971
v 0.889273 0.840000 0.111971
v 0.941296 1.120000 0.094311
v 0.941296 0.840000 0.094311
v 0.995179 1.120000 0.083593
v 0.995179 0.840000 0.083593
v 1.050000 1.120000 0.080000
v 1.050000 0.840000 0.080000
v 1.104821 1.120000 0.083593
v 1.104821 0.840000 0.083593
v 1.158704 1.120000 0.094311
v 1.158704 0.840000 0.094311
v 1.210727 1.120000 0.111971
v 1.210727 0.840000 0.111971
v 1.260000 1.120000 0.136269
v 1.260000 0.840000 0.136269
v 1.305680 1.120000 0.166792
v 1.305680 0.840000 0.166792
v 1.346985 1.120000 0.203015
v 1.346985 0.840000 0.203015
v 1.383208 1.120000 0.244320
v 1.383208 0.840000 0.244320
v 1.413731 1.120000 0.290000
v 1.413731 0.840000 0.290000
v 1.438029 1.120000 0.339273
v 1.438029 0.840000 0.339273
v 1.455689 1.120000 0.391296
v 1.455689 0.840000 0.391296
v 1.466407 1.120000 0.445179
v 1.466407 0.840000 0.445179
f 1106 1105 1109
f 1106 1109 1107
f 1107 1109 1110
f 1107 1110 1108
f 1109 1105 1111
f 1109 1111 1110
f 1110 1111 1112
f 1110 1112 1108
f 1111 1105 1113
f 1111 1113 1112
f 1112 1113 1114
f 1112 1114 1108
f 1113 1105 1115
f 1113 1115 1114
f 1114 1115 1116
f 1114 1116 1108
f 1115 1105 1117
f 1115 1117 1116
f 1116 1117 1118
f 1116 1118 1108
f 1117 1105 1119
f 1117 1119 1118
f 1118 1119 1120
f 1118 1120 1108
f 1119 1105 1121
f 1119 1121 1120
f 1120 1121 1122
f 1120 1122 1108
f 1121 1105 1123
f 1121 1123 1122
f 1122 1123 1124
f 1122 1124 1108
f 1123 1105 1125
f 1123 1125 1124
f 1124 1125 1126
f 1124 1126 1108
f 1125 1105 1127
f 1125 1127 1126
f 1126 1127 1128
f 1126 1128 1108
f 1127 1105 1129
f 1127 1129 1128
f 1128 1129 1130
f 1128 1130 1108
f 1129 1105 1131
f 1129 1131 1130
f 1130 1131 1132
f 1130 1132 1108
f 1131 1105 1133
f 1131 1133 1132
f 1132 1133 1134
f 1132 1134 1108
f 1133 1105 1135
f 1133 1135 1134
f 1134 1135 1136
f 1134 1136 1108
f 1135 1105 1137
f 1135 1137 1136
f 1136 1137 1138
f 1136 1138 1108
f 1137 1105 1139
f 1137 1139 1138
f 1138 1139 1140
f 1138 1140 1108
f 1139 1105 1141
f 1139 1141 1140
f 1140 1141 1142
f 1140 1142 1108
f 1141 1105 1143
f 1141 1143 1142
f 1142 1143 1144
f 1142 1144 1108
f 1143 1105 1145
f 1143 1145 1144
f 1144 1145 1146
f 1144 1146 1108
f 1145 1105 1147
f 1145 1147 1146
f 1146 1147 1148
f 1146 1148 1108
f 1147 1105 1149
f 1147 1149 1148
f 1148 1149 1150
f 1148 1150 1108
f 1149 1105 1151
f 1149 1151 1150
f 1150 1151 1152
f 1150 1152 1108
f 1151 1105 1153
f 1151 1153 1152
f 1152 1153 1154
f 1152 1154 1108
f 1153 1105 1155
f 1153 1155 1154
f 1154 1155 1156
f 1154 1156 1108
f 1155 1105 1157
f 1155 1157 1156
f 1156 1157 1158
f 1156 1158 1108
f 1157 1105 1159
f 1157 1159 1158
f 1158 1159 1160
f 1158 1160 1108
f 1159 1105 1161
f 1159 1161 1160
f 1160 1161 1162
f 1160 1162 1108
f 1161 1105 1163
f 1161 1163 1162
f 1162 1163 1164
f 1162 1164 1108
f 1163 1105 1165
f 1163 1165 1164
f 1164 1165 1166
f 1164 1166 1108
f 1165 1105 1167
f 1165 1167 1166
f 1166 1167 1168
f 1166 1168 1108
f 1167 1105 1169
f 1167 1169 1168
f 1168 1169 1170
f 1168 1170 1108
f 1169 1105 1171
f 1169 1171 1170
f 1170 1171 1172
f 1170 1172 1108
f 1171 1105 1173
f 1171 1173 1172
f 1172 1173 1174
f 1172 1174 1108
f 1173 1105 1175
f 1173 1175 1174
f 1174 1175 1176
f 1174 1176 1108
f 1175 1105 1177
f 1175 1177 1176
f 1176 1177 1178
f 1176 1178 1108
f 1177 1105 1179
f 1177 1179 1178
f 1178 1179 1180
f 1178 1180 1108
f 1179 1105 1181
f 1179 1181 1180
f 1180 1181 1182
f 1180 1182 1108
f 1181 1105 1183
f 1181 1183 1182
f 1182 1183 1184
f 1182 1184 1108
f 1183 1105 1185
f 1183 1185 1184
f 1184 1185 1186
f 1184 1186 1108
f 1185 1105 1187
f 1185 1187 1186
f 1186 1187 1188
f 1186 1188 1108
f 1187 1105 1189
f 1187 1189 1188
f 1188 1189 1190
f 1188 1190 1108
f 1189 1105 1191
f 1189 1191 1190
f 1190 1191 1192
f 1190 1192 1108
f 1191 1105 1193
f 1191 1193 1192
f 1192 1193 1194
f 1192 1194 1108
f 1193 1105 1195
f 1193 1195 1194
f 1194 1195 1196
f 1194 1196 1108
f 1195 1105 1197
f 1195 1197 1196
f 1196 1197 1198
f 1196 1198 1108
f 1197 1105 1199
f 1197 1199 1198
f 1198 1199 1200
f 1198 1200 1108
f 1199 1105 1201
f 1199 1201 1200
f 1200 1201 1202
f 1200 1202 1108
f 1201 1105 1106
f 1201 1106 1202
f 1202 1106 1107
f 1202 1107 1108

o rim_22
usemtl rim
v 1.050000 1.130000 0.500000
v 1.300000 1.130000 0.500000
v 1.300000 0.830000 0.500000
v 1.050000 0.830000 0.500000
v 1.296202 1.130000 0.543412
v 1.296202 0.830000 0.543412
v 1.284923 1.130000 0.585505
v 1.284923 0.830000 0.585505
v 1.266506 1.130000 0.625000
v 1.266506 0.830000 0.625000
v 1.241511 1.130000 0.660697
v 1.241511 0.830000 0.660697
v 1.210697 1.130000 0.691511
v 1.210697 0.830000 0.691511
v 1.175000 1.130000 0.716506
v 1.175000 0.830000 0.716506
v 1.135505 1.130000 0.734923
v 1.135505 0.830000 0.734923
v 1.093412 1.130000 0.746202
v 1.093412 0.830000 0.746202
v 1.050000 1.130000 0.750000
v 1.050000 0.830000 0.750000
v 1.006588 1.130000 0.746202
v 1.006588 0.830000 0.746202
v 0.964495 1.130000 0.734923
v 0.964495 0.830000 0.734923
v 0.925000 1.130000 0.716506
v 0.925000 0.830000 0.716506
v 0.889303 1.130000 0.691511
v 0.889303 0.830000 0.691511
v 0.858489 1.130000 0.660697
v 0.858489 0.830000 0.660697
v 0.833494 1.130000 0.625000
v 0.833494 0.830000 0.625000
v 0.815077 1.130000 0.585505
v 0.815077 0.830000 0.585505
v 0.803798 1.130000 0.543412
v 0.803798 0.830000 0.543412
v 0.800000 1.130000 0.500000
v 0.800000 0.830000 0.500000
v 0.803798 1.130000 0.456588
v 0.803798 0.830000 0.456588
v 0.815077 1.130000 0.414495
v 0.815077 0.830000 0.414495
v 0.833494 1.130000 0.375000
v 0.833494 0.830000 0.375000
v 0.858489 1.130000 0.339303
v 0.858489 0.830000 0.339303
v 0.889303 1.130000 0.308489
v 0.889303 0.830000 0.308489
v 0.925000 1.130000 0.283494
v 0.925000 0.830000 0.283494
v 0.964495 1.130000 0.265077
v 0.964495 0.830000 0.265077
v 1.006588 1.130000 0.253798
v 1.006588 0.830000 0.253798
v 1.050000 1.130000 0.250000
v 1.050000 0.830000 0.250000
v 1.093412 1.130000 0.253798
v 1.093412 0.830000 0.253798
v 1.135505 1.130000 0.265077
v 1.135505 0.830000 0.265077
v 1.175000 1.130000 0.283494
v 1.175000 0.830000 0.283494
v 1.210697 1.130000 0.308489
v 1.210697 0.830000 0.308489
v 1.241511 1.130000 0.339303
v 1.241511 0.830000 0.339303
v 1.266506 1.130000 0.375000
v 1.266506 0.830000 0.375000
v 1.284923 1.130000 0.414495
v 1.284923 0.830000 0.414495
v 1.296202 1.130000 0.456588
v 1.296202 0.830000 0.456588
f 1204 1203 1207
f 1204 1207 1205
f 1205 1207 1208
f 1205 1208 1206
f 1207 1203 1209
f 1207 1209 1208
f 1208 1209 1210
f 1208 1210 1206
f 1209 1203 1211
f 1209 1211 1210
f 1210 1211 1212
f 1210 1212 1206
f 1211 1203 1213
f 1211 1213 1212
f 1212 1213 1214
f 1212 1214 1206
f 1213 1203 1215
f 1213 1215 1214
f 1214 1215 1216
f 1214 1216 1206
f 1215 1203 1217
f 1215 1217 1216
f 1216 1217 1218
f 1216 1218 1206
f 1217 1203 1219
f 1217 1219 1218
f 1218 1219 1220
f 1218 1220 1206
f 1219 1203 1221
f 1219 1221 1220
f 1220 1221 1222
f 1220 1222 1206
f 1221 1203 1223
f 1221 1223 1222
f 1222 1223 1224
f 1222 1224 1206
f 1223 1203 1225
f 1223 1225 1224
f 1224 1225 1226
f 1224 1226 1206
f 1225 1203 1227
f 1225 1227 1226
f 1226 1227 1228
f 1226 1228 1206
f 1227 1203 1229
f 1227 1229 1228
f 1228 1229 1230
f 1228 1230 1206
f 1229 1203 1231
f 1229 1231 1230
f 1230 1231 1232
f 1230 1232 1206
f 1231 1203 1233
f 1231 1233 1232
f 1232 1233 1234
f 1232 1234 1206
f 1233 1203 1235
f 1233 1235 1234
f 1234 1235 1236
f 1234 1236 1206
f 1235 1203 1237
f 1235 1237 1236
f 1236 1237 1238
f 1236 1238 1206
f 1237 1203 1239
f 1237 1239 1238
f 1238 1239 1240
f 1238 1240 1206
f 1239 1203 1241
f 1239 1241 1240
f 1240 1241 1242
f 1240 1242 1206
f 1241 1203 1243
f 1241 1243 1242
f 1242 1243 1244
f 1242 1244 1206
f 1243 1203 1245
f 1243 1245 1244
f 1244 1245 1246
f 1244 1246 1206
f 1245 1203 1247
f 1245 1247 1246
f 1246 1247 1248
f 1246 1248 1206
f 1247 1203 1249
f 1247 1249 1248
f 1248 1249 1250
f 1248 1250 1206
f 1249 1203 1251
f 1249 1251 1250
f 1250 1251 1252
f 1250 1252 1206
f 1251 1203 1253
f 1251 1253 1252
f 1252 1253 1254
f 1252 1254 1206
f 1253 1203 1255
f 1253 1255 1254
f 1254 1255 1256
f 1254 1256 1206
f 1255 1203 1257
f 1255 1257 1256
f 1256 1257 1258
f 1256 1258 1206
f 1257 1203 1259
f 1257 1259 1258
f 1258 1259 1260
f 1258 1260 1206
f 1259 1203 1261
f 1259 1261 1260
f 1260 1261 1262
f 1260 1262 1206
f 1261 1203 1263
f 1261 1263 1262
f 1262 1263 1264
f 1262 1264 1206
f 1263 1203 1265
f 1263 1265 1264
f 1264 1265 1266
f 1264 1266 1206
f 1265 1203 1267
f 1265 1267 1266
f 1266 1267 1268
f 1266 1268 1206
f 1267 1203 1269
f 1267 1269 1268
f 1268 1269 1270
f 1268 1270 1206
f 1269 1203 1271
f 1269 1271 1270
f 1270 1271 1272
f 1270 1272 1206
f 1271 1203 1273
f 1271 1273 1272
f 1272 1273 1274
f 1272 1274 1206
f 1273 1203 1275
f 1273 1275 1274
f 1274 1275 1276
f 1274 1276 1206
f 1275 1203 1204
f 1275 1204 1276
f 1276 1204 1205
f 1276 1205 1206

o headlight_23
usemtl headlight
v -1.730000 -0.680000 0.750000
v -1.730000 -0.680000 1.090000
v -1.730000 -0.420000 0.750000
v -1.730000 -0.420000 1.090000
v -1.630000 -0.680000 0.750000
v -1.630000 -0.680000 1.090000
v -1.630000 -0.420000 0.750000
v -1.630000 -0.420000 1.090000
f 1278 1280 1277
f 1281 1278 1277
f 1277 1280 1279
f 1279 1281 1277
f 1278 1284 1280
f 1282 1278 1281
f 1282 1284 1278
f 1280 1284 1279
f 1283 1281 1279
f 1279 1284 1283
f 1283 1282 1281
f 1284 1282 1283

o headlight_24
usemtl headlight
v -1.730000 0.420000 0.750000
v -1.730000 0.420000 1.090000
v -1.730000 0.680000 0.750000
v -1.730000 0.680000 1.090000
v -1.630000 0.420000 0.750000
v -1.630000 0.420000 1.090000
v -1.630000 0.680000 0.750000
v -1.630000 0.680000 1.090000
f 1286 1288 1285
f 1289 1286 1285
f 1285 1288 1287
f 1287 1289 1285
f 1286 1292 1288
f 1290 1286 1289
f 1290 1292 1286
f 1288 1292 1287
f 1291 1289 1287
f 1287 1292 1291
f 1291 1290 1289
f 1292 1290 1291

o front_camera_25
usemtl front_camera
v -1.730000 0.000000 1.030000
v -1.730000 0.000000 0.950000
v -1.630000 0.000000 0.950000
v -1.630000 0.000000 1.030000
v -1.730000 0.020706 0.952726
v -1.630000 0.020706 0.952726
v -1.730000 0.040000 0.960718
v -1.630000 0.040000 0.960718
v -1.730000 0.056569 0.973431
v -1.630000 0.056569 0.973431
v -1.730000 0.069282 0.990000
v -1.630000 0.069282 0.990000
v -1.730000 0.077274 1.009294
v -1.630000 0.077274 1.009294
v -1.730000 0.080000 1.030000
v -1.630000 0.080000 1.030000
v -1.730000 0.077274 1.050706
v -1.630000 0.077274 1.050706
v -1.730000 0.069282 1.070000
v -1.630000 0.069282 1.070000
v -1.730000 0.056569 1.086569
v -1.630000 0.056569 1.086569
v -1.730000 0.040000 1.099282
v -1.630000 0.040000 1.099282
v -1.730000 0.020706 1.107274
v -1.630000 0.020706 1.107274
v -1.730000 0.000000 1.110000
v -1.630000 0.000000 1.110000
v -1.730000 -0.020706 1.107274
v -1.630000 -0.020706 1.107274
v -1.730000 -0.040000 1.099282
v -1.630000 -0.040000 1.099282
v -1.730000 -0.056569 1.086569
v -1.630000 -0.056569 1.086569
v -1.730000 -0.069282 1.070000
v -1.630000 -0.069282 1.070000
v -1.730000 -0.077274 1.050706
v -1.630000 -0.077274 1.050706
v -1.730000 -0.080000 1.030000
v -1.630000 -0.080000 1.030000
v -1.730000 -0.077274 1.009294
v -1.630000 -0.077274 1.009294
v -1.730000 -0.069282 0.990000
v -1.630000 -0.069282 0.990000
v -1.730000 -0.056569 0.973431
v -1.630000 -0.056569 0.973431
v -1.730000 -0.040000 0.960718
v -1.630000 -0.040000 0.960718
v -1.730000 -0.020706 0.952726
v -1.630000 -0.020706 0.952726
f 1294 1293 1297
f 1294 1297 1295
f 1295 1297 1298
f 1295 1298 1296
f 1297 1293 1299
f 1297 1299 1298
f 1298 1299 1300
f 1298 1300 1296
f 1299 1293 1301
f 1299 1301 1300
f 1300 1301 1302
f 1300 1302 1296
f 1301 1293 1303
f 1301 1303 1302
f 1302 1303 1304
f 1302 1304 1296
f 1303 1293 1305
f 1303 1305 1304
f 1304 1305 1306
f 1304 1306 1296
f 1305 1293 1307
f 1305 1307 1306
f 1306 1307 1308
f 1306 1308 1296
f 1307 1293 1309
f 1307 1309 1308
f 1308 1309 1310
f 1308 1310 1296
f 1309 1293 1311
f 1309 1311 1310
f 1310 1311 1312
f 1310 1312 1296
f 1311 1293 1313
f 1311 1313 1312
f 1312 1313 1314
f 1312 1314 1296
f 1313 1293 1315
f 1313 1315 1314
f 1314 1315 1316
f 1314 1316 1296
f 1315 1293 1317
f 1315 1317 1316
f 1316 1317 1318
f 1316 1318 1296
f 1317 1293 1319
f 1317 1319 1318
f 1318 1319 1320
f 1318 1320 1296
f 1319 1293 1321
f 1319 1321 1320
f 1320 1321 1322
f 1320 1322 1296
f 1321 1293 1323
f 1321 1323 1322
f 1322 1323 1324
f 1322 1324 1296
f 1323 1293 1325
f 1323 1325 1324
f 1324 1325 1326
f 1324 1326 1296
f 1325 1293 1327
f 1325 1327 1326
f 1326 1327 1328
f 1326 1328 1296
f 1327 1293 1329
f 1327 1329 1328
f 1328 1329 1330
f 1328 1330 1296
f 1329 1293 1331
f 1329 1331 1330
f 1330 1331 1332
f 1330 1332 1296
f 1331 1293 1333
f 1331 1333 1332
f 1332 1333 1334
f 1332 1334 1296
f 1333 1293 1335
f 1333 1335 1334
f 1334 1335 1336
f 1334 1336 1296
f 1335 1293 1337
f 1335 1337 1336
f 1336 1337 1338
f 1336 1338 1296
f 1337 1293 1339
f 1337 1339 1338
f 1338 1339 1340
f 1338 1340 1296
f 1339 1293 1341
f 1339 1341 1340
f 1340 1341 1342
f 1340 1342 1296
f 1341 1293 1294
f 1341 1294 1342
f 1342 1294 1295
f 1342 1295 1296

o front_lower_camera_26
usemtl front_lower_camera
v -1.730000 0.000000 0.540000
v -1.730000 0.000000 0.470000
v -1.630000 0.000000 0.470000
v -1.630000 0.000000 0.540000
v -1.730000 0.018117 0.472385
v -1.630000 0.018117 0.472385
v -1.730000 0.035000 0.479378
v -1.630000 0.035000 0.479378
v -1.730000 0.049497 0.490503
v -1.630000 0.049497 0.490503
v -1.730000 0.060622 0.505000
v -1.630000 0.060622 0.505000
v -1.730000 0.067615 0.521883
v -1.630000 0.067615 0.521883
v -1.730000 0.070000 0.540000
v -1.630000 0.070000 0.540000
v -1.730000 0.067615 0.558117
v -1.630000 0.067615 0.558117
v -1.730000 0.060622 0.575000
v -1.630000 0.060622 0.575000
v -1.730000 0.049497 0.589497
v -1.630000 0.049497 0.589497
v -1.730000 0.035000 0.600622
v -1.630000 0.035000 0.600622
v -1.730000 0.018117 0.607615
v -1.630000 0.018117 0.607615
v -1.730000 0.000000 0.610000
v -1.630000 0.000000 0.610000
v -1.730000 -0.018117 0.607615
v -1.630000 -0.018117 0.607615
v -1.730000 -0.035000 0.600622
v -1.630000 -0.035000 0.600622
v -1.730000 -0.049497 0.589497
v -1.630000 -0.049497 0.589497
v -1.730000 -0.060622 0.575000
v -1.630000 -0.060622 0.575000
v -1.730000 -0.067615 0.558117
v -1.630000 -0.067615 0.558117
v -1.730000 -0.070000 0.540000
v -1.630000 -0.070000 0.540000
v -1.730000 -0.067615 0.521883
v -1.630000 -0.067615 0.521883
v -1.730000 -0.060622 0.505000
v -1.630000 -0.060622 0.505000
v -1.730000 -0.049497 0.490503
v -1.630000 -0.049497 0.490503
v -1.730000 -0.035000 0.479378
v -1.630000 -0.035000 0.479378
v -1.730000 -0.018117 0.472385
v -1.630000 -0.018117 0.472385
f 1344 1343 1347
f 1344 1347 1345
f 1345 1347 1348
f 1345 1348 1346
f 1347 1343 1349
f 1347 1349 1348
f 1348 1349 1350
f 1348 1350 1346
f 1349 1343 1351
f 1349 1351 1350
f 1350 1351 1352
f 1350 1352 1346
f 1351 1343 1353
f 1351 1353 1352
f 1352 1353 1354
f 1352 1354 1346
f 1353 1343 1355
f 1353 1355 1354
f 1354 1355 1356
f 1354 1356 1346
f 1355 1343 1357
f 1355 1357 1356
f 1356 1357 1358
f 1356 1358 1346
f 1357 1343 1359
f 1357 1359 1358
f 1358 1359 1360
f 1358 1360 1346
f 1359 1343 1361
f 1359 1361 1360
f 1360 1361 1362
f 1360 1362 1346
f 1361 1343 1363
f 1361 1363 1362
f 1362 1363 1364
f 1362 1364 1346
f 1363 1343 1365
f 1363 1365 1364
f 1364 1365 1366
f 1364 1366 1346
f 1365 1343 1367
f 1365 1367 1366
f 1366 1367 1368
f 1366 1368 1346
f 1367 1343 1369
f 1367 1369 1368
f 1368 1369 1370
f 1368 1370 1346
f 1369 1343 1371
f 1369 1371 1370
f 1370 1371 1372
f 1370 1372 1346
f 1371 1343 1373
f 1371 1373 1372
f 1372 1373 1374
f 1372 1374 1346
f 1373 1343 1375
f 1373 1375 1374
f 1374 1375 1376
f 1374 1376 1346
f 1375 1343 1377
f 1375 1377 1376
f 1376 1377 1378
f 1376 1378 1346
f 1377 1343 1379
f 1377 1379 1378
f 1378 1379 1380
f 1378 1380 1346
f 1379 1343 1381
f 1379 1381 1380
f 1380 1381 1382
f 1380 1382 1346
f 1381 1343 1383
f 1381 1383 1382
f 1382 1383 1384
f 1382 1384 1346
f 1383 1343 1385
f 1383 1385 1384
f 1384 1385 1386
f 1384 1386 1346
f 1385 1343 1387
f 1385 1387 1386
f 1386 1387 1388
f 1386 1388 1346
f 1387 1343 1389
f 1387 1389 1388
f 1388 1389 1390
f 1388 1390 1346
f 1389 1343 1391
f 1389 1391 1390
f 1390 1391 1392
f 1390 1392 1346
f 1391 1343 1344
f 1391 1344 1392
f 1392 1344 1345
f 1392 1345 1346

o side_marker_27
usemtl side_marker
v 1.150000 -0.985000 0.520000
v 1.150000 -0.985000 0.600000
v 1.150000 -0.935000 0.520000
v 1.150000 -0.935000 0.600000
v 1.250000 -0.985000 0.520000
v 1.250000 -0.985000 0.600000
v 1.250000 -0.935000 0.520000
v 1.250000 -0.935000 0.600000
f 1394 1396 1393
f 1397 1394 1393
f 1393 1396 1395
f 1395 1397 1393
f 1394 1400 1396
f 1398 1394 1397
f 1398 1400 1394
f 1396 1400 1395
f 1399 1397 1395
f 1395 1400 1399
f 1399 1398 1397
f 1400 1398 1399

